<svg width="1920" height="1235" viewBox="0 0 1920 1235" fill="none" xmlns="http://www.w3.org/2000/svg">
<g>
<g id="door">
<path id="Intersect" d="M1053 341L1053 357C1061.84 357 1069 349.837 1069 341L1053 341Z" fill="white"/>
<path id="Intersect_2" d="M1053 341L1069 341C1069 349.837 1061.84 357 1053 357" stroke="#1D2056"/>
<rect id="Rectangle 240653104" width="15" height="0.5" transform="matrix(4.37114e-08 -1 -1 -4.37114e-08 1053 356.5)" fill="white"/>
<rect id="Rectangle 240653105" width="1" height="0.5" transform="matrix(4.37114e-08 -1 -1 -4.37114e-08 1053 357.5)" fill="#1D2056"/>
<rect id="Rectangle 240653106" width="1" height="0.5" transform="matrix(4.37114e-08 -1 -1 -4.37114e-08 1053 341.5)" fill="#1D2056"/>
</g>
<g id="door_2">
<path id="Intersect_3" d="M1053 232L1053 248C1061.84 248 1069 240.837 1069 232L1053 232Z" fill="white"/>
<path id="Intersect_4" d="M1053 232L1069 232C1069 240.837 1061.84 248 1053 248" stroke="#1D2056"/>
<rect id="Rectangle 240653104_2" width="15" height="0.5" transform="matrix(4.37114e-08 -1 -1 -4.37114e-08 1053 247.5)" fill="white"/>
<rect id="Rectangle 240653105_2" width="1" height="0.5" transform="matrix(4.37114e-08 -1 -1 -4.37114e-08 1053 248.5)" fill="#1D2056"/>
<rect id="Rectangle 240653106_2" width="1" height="0.5" transform="matrix(4.37114e-08 -1 -1 -4.37114e-08 1053 232.5)" fill="#1D2056"/>
</g>
<g id="door_3">
<path id="Intersect_5" d="M1110 515L1110 499C1101.16 499 1094 506.163 1094 515L1110 515Z" fill="white"/>
<path id="Intersect_6" d="M1110 515L1094 515C1094 506.163 1101.16 499 1110 499" stroke="#1D2056"/>
<rect id="Rectangle 240653104_3" width="15" height="0.5" transform="matrix(-1.31134e-07 1 1 1.31134e-07 1110 499.5)" fill="white"/>
<rect id="Rectangle 240653105_3" width="1" height="0.5" transform="matrix(-1.31134e-07 1 1 1.31134e-07 1110 498.5)" fill="#1D2056"/>
<rect id="Rectangle 240653106_3" width="1" height="0.5" transform="matrix(-1.31134e-07 1 1 1.31134e-07 1110 514.5)" fill="#1D2056"/>
</g>
<g id="door_4">
<path id="Intersect_7" d="M1110 650L1110 634C1101.16 634 1094 641.163 1094 650L1110 650Z" fill="white"/>
<path id="Intersect_8" d="M1110 650L1094 650C1094 641.163 1101.16 634 1110 634" stroke="#1D2056"/>
<rect id="Rectangle 240653104_4" width="15" height="0.5" transform="matrix(-1.31134e-07 1 1 1.31134e-07 1110 634.5)" fill="white"/>
<rect id="Rectangle 240653105_4" width="1" height="0.5" transform="matrix(-1.31134e-07 1 1 1.31134e-07 1110 633.5)" fill="#1D2056"/>
<rect id="Rectangle 240653106_4" width="1" height="0.5" transform="matrix(-1.31134e-07 1 1 1.31134e-07 1110 649.5)" fill="#1D2056"/>
</g>
<g id="door_5">
<path id="Intersect_9" d="M1110 699L1110 683C1101.16 683 1094 690.163 1094 699L1110 699Z" fill="white"/>
<path id="Intersect_10" d="M1110 699L1094 699C1094 690.163 1101.16 683 1110 683" stroke="#1D2056"/>
<rect id="Rectangle 240653104_5" width="15" height="0.5" transform="matrix(-1.31134e-07 1 1 1.31134e-07 1110 683.5)" fill="white"/>
<rect id="Rectangle 240653105_5" width="1" height="0.5" transform="matrix(-1.31134e-07 1 1 1.31134e-07 1110 682.5)" fill="#1D2056"/>
<rect id="Rectangle 240653106_5" width="1" height="0.5" transform="matrix(-1.31134e-07 1 1 1.31134e-07 1110 698.5)" fill="#1D2056"/>
</g>
<g id="door_6">
<path id="Intersect_11" d="M1053 264L1053 248C1061.84 248 1069 255.163 1069 264L1053 264Z" fill="white"/>
<path id="Intersect_12" d="M1053 264L1069 264C1069 255.163 1061.84 248 1053 248" stroke="#1D2056"/>
<rect id="Rectangle 240653104_6" x="1053" y="248.5" width="15" height="0.5" transform="rotate(90 1053 248.5)" fill="white"/>
<rect id="Rectangle 240653105_6" x="1053" y="247.5" width="1" height="0.5" transform="rotate(90 1053 247.5)" fill="#1D2056"/>
<rect id="Rectangle 240653106_6" x="1053" y="263.5" width="1" height="0.5" transform="rotate(90 1053 263.5)" fill="#1D2056"/>
</g>
<g id="door_7">
<path id="Intersect_13" d="M1110 483L1110 499C1101.16 499 1094 491.837 1094 483L1110 483Z" fill="white"/>
<path id="Intersect_14" d="M1110 483L1094 483C1094 491.837 1101.16 499 1110 499" stroke="#1D2056"/>
<rect id="Rectangle 240653104_7" x="1110" y="498.5" width="15" height="0.5" transform="rotate(-90 1110 498.5)" fill="white"/>
<rect id="Rectangle 240653105_7" x="1110" y="499.5" width="1" height="0.5" transform="rotate(-90 1110 499.5)" fill="#1D2056"/>
<rect id="Rectangle 240653106_7" x="1110" y="483.5" width="1" height="0.5" transform="rotate(-90 1110 483.5)" fill="#1D2056"/>
</g>
<g id="door_8">
<path id="Intersect_15" d="M1110 618L1110 634C1101.16 634 1094 626.837 1094 618L1110 618Z" fill="white"/>
<path id="Intersect_16" d="M1110 618L1094 618C1094 626.837 1101.16 634 1110 634" stroke="#1D2056"/>
<rect id="Rectangle 240653104_8" x="1110" y="633.5" width="15" height="0.5" transform="rotate(-90 1110 633.5)" fill="white"/>
<rect id="Rectangle 240653105_8" x="1110" y="634.5" width="1" height="0.5" transform="rotate(-90 1110 634.5)" fill="#1D2056"/>
<rect id="Rectangle 240653106_8" x="1110" y="618.5" width="1" height="0.5" transform="rotate(-90 1110 618.5)" fill="#1D2056"/>
</g>
<g id="door_9">
<path id="Intersect_17" d="M1110 667L1110 683C1101.16 683 1094 675.837 1094 667L1110 667Z" fill="white"/>
<path id="Intersect_18" d="M1110 667L1094 667C1094 675.837 1101.16 683 1110 683" stroke="#1D2056"/>
<rect id="Rectangle 240653104_9" x="1110" y="682.5" width="15" height="0.5" transform="rotate(-90 1110 682.5)" fill="white"/>
<rect id="Rectangle 240653105_9" x="1110" y="683.5" width="1" height="0.5" transform="rotate(-90 1110 683.5)" fill="#1D2056"/>
<rect id="Rectangle 240653106_9" x="1110" y="667.5" width="1" height="0.5" transform="rotate(-90 1110 667.5)" fill="#1D2056"/>
</g>
<g id="door_10">
<path id="Intersect_19" d="M1053 483L1053 499C1061.84 499 1069 491.837 1069 483L1053 483Z" fill="white"/>
<path id="Intersect_20" d="M1053 483L1069 483C1069 491.837 1061.84 499 1053 499" stroke="#1D2056"/>
<rect id="Rectangle 240653104_10" width="15" height="0.5" transform="matrix(4.37114e-08 -1 -1 -4.37114e-08 1053 498.5)" fill="white"/>
<rect id="Rectangle 240653105_10" width="1" height="0.5" transform="matrix(4.37114e-08 -1 -1 -4.37114e-08 1053 499.5)" fill="#1D2056"/>
<rect id="Rectangle 240653106_10" width="1" height="0.5" transform="matrix(4.37114e-08 -1 -1 -4.37114e-08 1053 483.5)" fill="#1D2056"/>
</g>
<g id="door_11">
<path id="Intersect_21" d="M878 651H894C894 659.837 886.837 667 878 667V651Z" fill="white"/>
<path id="Intersect_22" d="M878 651V667C886.837 667 894 659.837 894 651" stroke="#1D2056"/>
<rect id="Rectangle 240653104_11" x="893.5" y="651" width="15" height="0.5" transform="rotate(180 893.5 651)" fill="white"/>
<rect id="Rectangle 240653105_11" x="894.5" y="651" width="1" height="0.5" transform="rotate(180 894.5 651)" fill="#1D2056"/>
<rect id="Rectangle 240653106_11" x="878.5" y="651" width="1" height="0.5" transform="rotate(180 878.5 651)" fill="#1D2056"/>
</g>
<g id="door_12">
<path id="Intersect_23" d="M624 651H640C640 659.837 632.837 667 624 667V651Z" fill="white"/>
<path id="Intersect_24" d="M624 651V667C632.837 667 640 659.837 640 651" stroke="#1D2056"/>
<rect id="Rectangle 240653104_12" x="639.5" y="651" width="15" height="0.5" transform="rotate(180 639.5 651)" fill="white"/>
<rect id="Rectangle 240653105_12" x="640.5" y="651" width="1" height="0.5" transform="rotate(180 640.5 651)" fill="#1D2056"/>
<rect id="Rectangle 240653106_12" x="624.5" y="651" width="1" height="0.5" transform="rotate(180 624.5 651)" fill="#1D2056"/>
</g>
<g id="door_13">
<path id="Intersect_25" d="M624 738H640C640 746.837 632.837 754 624 754V738Z" fill="white"/>
<path id="Intersect_26" d="M624 738V754C632.837 754 640 746.837 640 738" stroke="#1D2056"/>
<rect id="Rectangle 240653104_13" x="639.5" y="738" width="15" height="0.5" transform="rotate(180 639.5 738)" fill="white"/>
<rect id="Rectangle 240653105_13" x="640.5" y="738" width="1" height="0.5" transform="rotate(180 640.5 738)" fill="#1D2056"/>
<rect id="Rectangle 240653106_13" x="624.5" y="738" width="1" height="0.5" transform="rotate(180 624.5 738)" fill="#1D2056"/>
</g>
<g id="door_14">
<path id="Intersect_27" d="M592 680L592 696C583.163 696 576 688.837 576 680L592 680Z" fill="white"/>
<path id="Intersect_28" d="M592 680L576 680C576 688.837 583.163 696 592 696" stroke="#1D2056"/>
<rect id="Rectangle 240653104_14" x="592" y="695.5" width="15" height="0.5" transform="rotate(-90 592 695.5)" fill="white"/>
<rect id="Rectangle 240653105_14" x="592" y="696.5" width="1" height="0.5" transform="rotate(-90 592 696.5)" fill="#1D2056"/>
<rect id="Rectangle 240653106_14" x="592" y="680.5" width="1" height="0.5" transform="rotate(-90 592 680.5)" fill="#1D2056"/>
</g>
<g id="door_15">
<path id="Intersect_29" d="M656 651H640C640 659.837 647.163 667 656 667V651Z" fill="white"/>
<path id="Intersect_30" d="M656 651V667C647.163 667 640 659.837 640 651" stroke="#1D2056"/>
<rect id="Rectangle 240653104_15" width="15" height="0.5" transform="matrix(1 0 0 -1 640.5 651)" fill="white"/>
<rect id="Rectangle 240653105_15" width="1" height="0.5" transform="matrix(1 0 0 -1 639.5 651)" fill="#1D2056"/>
<rect id="Rectangle 240653106_15" width="1" height="0.5" transform="matrix(1 0 0 -1 655.5 651)" fill="#1D2056"/>
</g>
<g id="door_16">
<path id="Intersect_31" d="M656 738H640C640 746.837 647.163 754 656 754V738Z" fill="white"/>
<path id="Intersect_32" d="M656 738V754C647.163 754 640 746.837 640 738" stroke="#1D2056"/>
<rect id="Rectangle 240653104_16" width="15" height="0.5" transform="matrix(1 0 0 -1 640.5 738)" fill="white"/>
<rect id="Rectangle 240653105_16" width="1" height="0.5" transform="matrix(1 0 0 -1 639.5 738)" fill="#1D2056"/>
<rect id="Rectangle 240653106_16" width="1" height="0.5" transform="matrix(1 0 0 -1 655.5 738)" fill="#1D2056"/>
</g>
<g id="door_17">
<path id="Intersect_33" d="M592 712L592 696C583.163 696 576 703.163 576 712L592 712Z" fill="white"/>
<path id="Intersect_34" d="M592 712L576 712C576 703.163 583.163 696 592 696" stroke="#1D2056"/>
<rect id="Rectangle 240653104_17" width="15" height="0.5" transform="matrix(-4.37114e-08 1 1 4.37114e-08 592 696.5)" fill="white"/>
<rect id="Rectangle 240653105_17" width="1" height="0.5" transform="matrix(-4.37114e-08 1 1 4.37114e-08 592 695.5)" fill="#1D2056"/>
<rect id="Rectangle 240653106_17" width="1" height="0.5" transform="matrix(-4.37114e-08 1 1 4.37114e-08 592 711.5)" fill="#1D2056"/>
</g>
<g id="door_18">
<path id="Intersect_35" d="M1001 651H985C985 659.837 992.163 667 1001 667V651Z" fill="white"/>
<path id="Intersect_36" d="M1001 651V667C992.163 667 985 659.837 985 651" stroke="#1D2056"/>
<rect id="Rectangle 240653104_18" width="15" height="0.5" transform="matrix(1 0 0 -1 985.5 651)" fill="white"/>
<rect id="Rectangle 240653105_18" width="1" height="0.5" transform="matrix(1 0 0 -1 984.5 651)" fill="#1D2056"/>
<rect id="Rectangle 240653106_18" width="1" height="0.5" transform="matrix(1 0 0 -1 1000.5 651)" fill="#1D2056"/>
</g>
<g id="door_19">
<path id="Intersect_37" d="M778 936H794C794 944.837 786.837 952 778 952V936Z" fill="white"/>
<path id="Intersect_38" d="M778 936V952C786.837 952 794 944.837 794 936" stroke="#1D2056"/>
<rect id="Rectangle 240653104_19" x="793.5" y="936" width="15" height="0.5" transform="rotate(180 793.5 936)" fill="white"/>
<rect id="Rectangle 240653105_19" x="794.5" y="936" width="1" height="0.5" transform="rotate(180 794.5 936)" fill="#1D2056"/>
<rect id="Rectangle 240653106_19" x="778.5" y="936" width="1" height="0.5" transform="rotate(180 778.5 936)" fill="#1D2056"/>
</g>
<g id="door_20">
<path id="Intersect_39" d="M761 895L761 911C752.163 911 745 903.837 745 895L761 895Z" fill="white"/>
<path id="Intersect_40" d="M761 895L745 895C745 903.837 752.163 911 761 911" stroke="#1D2056"/>
<rect id="Rectangle 240653104_20" x="761" y="910.5" width="15" height="0.5" transform="rotate(-90 761 910.5)" fill="white"/>
<rect id="Rectangle 240653105_20" x="761" y="911.5" width="1" height="0.5" transform="rotate(-90 761 911.5)" fill="#1D2056"/>
<rect id="Rectangle 240653106_20" x="761" y="895.5" width="1" height="0.5" transform="rotate(-90 761 895.5)" fill="#1D2056"/>
</g>
</g>
<defs>
<clipPath id="clip0_1096_23842">
<rect width="32" height="32" fill="white" transform="translate(721 774)"/>
</clipPath>
<clipPath id="clip1_1096_23842">
<rect width="32" height="32" fill="white" transform="translate(721 826)"/>
</clipPath>
<clipPath id="clip2_1096_23842">
<rect width="32" height="32" fill="white" transform="translate(880 823)"/>
</clipPath>
<clipPath id="clip3_1096_23842">
<rect width="32" height="32" fill="white" transform="translate(968 893)"/>
</clipPath>
<clipPath id="clip4_1096_23842">
<rect width="32" height="32" fill="white" transform="translate(968 1001)"/>
</clipPath>
<clipPath id="clip5_1096_23842">
<rect width="32" height="32" fill="white" transform="translate(1066 388)"/>
</clipPath>
</defs>
</svg>
