<svg width="1920" height="1235" viewBox="0 0 1920 1235" fill="none" xmlns="http://www.w3.org/2000/svg">
<g id="Q_5">
<rect width="1920" height="1235" fill="#E8EDF3"/>
<g id="Visual">
<g id="Union">
<mask id="path-1-outside-1_1145_29510" maskUnits="userSpaceOnUse" x="557" y="198" width="799" height="709" fill="black">
<rect fill="white" x="557" y="198" width="799" height="709"/>
<path d="M975 723L560 723L560 596L633 596L633 545L823 545L823 406L633 406L633 231L823 231L823 201L1353 201L1353 904L975 904L975 723Z"/>
</mask>
<path d="M975 723L560 723L560 596L633 596L633 545L823 545L823 406L633 406L633 231L823 231L823 201L1353 201L1353 904L975 904L975 723Z" fill="white"/>
<path d="M975 723L978 723L978 720L975 720L975 723ZM560 723L557 723L557 726L560 726L560 723ZM560 596L560 593L557 593L557 596L560 596ZM633 596L633 599L636 599L636 596L633 596ZM633 545L633 542L630 542L630 545L633 545ZM823 545L823 548L826 548L826 545L823 545ZM823 406L826 406L826 403L823 403L823 406ZM633 406L630 406L630 409L633 409L633 406ZM633 231L633 228L630 228L630 231L633 231ZM823 231L823 234L826 234L826 231L823 231ZM823 201L823 198L820 198L820 201L823 201ZM1353 201L1356 201L1356 198L1353 198L1353 201ZM1353 904L1353 907L1356 907L1356 904L1353 904ZM975 904L972 904L972 907L975 907L975 904ZM975 723L975 720L560 720L560 723L560 726L975 726L975 723ZM560 723L563 723L563 596L560 596L557 596L557 723L560 723ZM560 596L560 599L633 599L633 596L633 593L560 593L560 596ZM633 596L636 596L636 545L633 545L630 545L630 596L633 596ZM633 545L633 548L823 548L823 545L823 542L633 542L633 545ZM823 545L826 545L826 406L823 406L820 406L820 545L823 545ZM823 406L823 403L633 403L633 406L633 409L823 409L823 406ZM633 406L636 406L636 231L633 231L630 231L630 406L633 406ZM633 231L633 234L823 234L823 231L823 228L633 228L633 231ZM823 231L826 231L826 201L823 201L820 201L820 231L823 231ZM823 201L823 204L1353 204L1353 201L1353 198L823 198L823 201ZM1353 201L1350 201L1350 904L1353 904L1356 904L1356 201L1353 201ZM1353 904L1353 901L975 901L975 904L975 907L1353 907L1353 904ZM975 904L978 904L978 723L975 723L972 723L972 904L975 904Z" fill="#1D2056" mask="url(#path-1-outside-1_1145_29510)"/>
</g>
<g id="Union_2">
<path d="M975 723L560 723L560 596L633 596L633 545L823 545L823 406L633 406L633 231L823 231L823 201L1353 201L1353 904L975 904L975 723Z" fill="white"/>
<path d="M975 723L976 723L976 722L975 722L975 723ZM560 723L559 723L559 724L560 724L560 723ZM560 596L560 595L559 595L559 596L560 596ZM633 596L633 597L634 597L634 596L633 596ZM633 545L633 544L632 544L632 545L633 545ZM823 545L823 546L824 546L824 545L823 545ZM823 406L824 406L824 405L823 405L823 406ZM633 406L632 406L632 407L633 407L633 406ZM633 231L633 230L632 230L632 231L633 231ZM823 231L823 232L824 232L824 231L823 231ZM823 201L823 200L822 200L822 201L823 201ZM1353 201L1354 201L1354 200L1353 200L1353 201ZM1353 904L1353 905L1354 905L1354 904L1353 904ZM975 904L974 904L974 905L975 905L975 904ZM975 723L975 722L560 722L560 723L560 724L975 724L975 723ZM560 723L561 723L561 596L560 596L559 596L559 723L560 723ZM560 596L560 597L633 597L633 596L633 595L560 595L560 596ZM633 596L634 596L634 545L633 545L632 545L632 596L633 596ZM633 545L633 546L823 546L823 545L823 544L633 544L633 545ZM823 545L824 545L824 406L823 406L822 406L822 545L823 545ZM823 406L823 405L633 405L633 406L633 407L823 407L823 406ZM633 406L634 406L634 231L633 231L632 231L632 406L633 406ZM633 231L633 232L823 232L823 231L823 230L633 230L633 231ZM823 231L824 231L824 201L823 201L822 201L822 231L823 231ZM823 201L823 202L1353 202L1353 201L1353 200L823 200L823 201ZM1353 201L1352 201L1352 904L1353 904L1354 904L1354 201L1353 201ZM1353 904L1353 903L975 903L975 904L975 905L1353 905L1353 904ZM975 904L976 904L976 723L975 723L974 723L974 904L975 904Z" fill="#1D2056"/>
</g>
<rect id="Rectangle 240653313" x="1224" y="611" width="5" height="32" transform="rotate(90 1224 611)" fill="white"/>
<g id="room">
<rect x="633" y="639" width="71" height="84" fill="#F5F7FA"/>
<rect x="633" y="639" width="71" height="84" stroke="#1D2056"/>
<g id="map_toilet_female">
<path id="Vector" fill-rule="evenodd" clip-rule="evenodd" d="M668.5 677.209C667.247 677.209 666.238 677.603 665.419 678.276C664.61 678.936 664.007 679.851 663.521 680.862C662.816 682.325 662.376 684.182 662.181 685.883C662.028 687.245 663.151 688.312 664.458 688.312L664.723 688.312L665.253 691.584C665.377 692.351 665.772 693.049 666.366 693.552C666.961 694.056 667.716 694.333 668.496 694.333C669.277 694.333 670.032 694.056 670.627 693.552C671.221 693.049 671.616 692.351 671.74 691.584L672.272 688.312L672.542 688.312C673.849 688.312 674.973 687.245 674.82 685.883C674.624 684.182 674.184 682.325 673.48 680.862C672.994 679.851 672.391 678.938 671.582 678.274C670.762 677.603 669.754 677.207 668.5 677.207L668.5 677.209ZM672.581 671.71C672.581 674.296 671.116 675.752 668.516 675.752C665.913 675.752 664.449 674.296 664.449 671.71C664.449 669.121 665.913 667.666 668.516 667.666C671.118 667.666 672.581 669.121 672.581 671.71Z" fill="#FF338B"/>
</g>
</g>
<g id="room_2">
<rect x="560" y="597" width="73" height="126" fill="#F5F7FA"/>
<rect x="560" y="597" width="73" height="126" stroke="#1D2056"/>
<g id="map_toilet_male">
<path id="Vector_2" fill-rule="evenodd" clip-rule="evenodd" d="M592.93 656.126C593.757 656.059 594.93 656 596.501 656C598.072 656 599.245 656.059 600.071 656.126C601.158 656.213 602.053 656.912 602.395 657.912C603.086 659.945 603.564 662.041 603.821 664.167C603.95 665.262 603.102 666.207 601.98 666.276C601.654 666.295 601.285 666.316 600.88 666.335L600.487 671.477C600.416 672.408 599.696 673.185 598.719 673.281C598.539 673.298 598.347 673.316 598.147 673.331C598.028 673.34 597.909 673.325 597.796 673.288C597.683 673.251 597.58 673.192 597.491 673.115C597.402 673.038 597.33 672.944 597.28 672.84C597.229 672.735 597.201 672.622 597.196 672.506L596.973 667.297C596.97 667.222 596.937 667.152 596.881 667.1C596.825 667.048 596.751 667.019 596.674 667.019L596.326 667.019C596.249 667.019 596.175 667.048 596.119 667.1C596.064 667.152 596.031 667.223 596.028 667.298L595.805 672.506C595.801 672.622 595.772 672.735 595.722 672.84C595.671 672.944 595.599 673.038 595.51 673.115C595.422 673.192 595.318 673.251 595.205 673.288C595.092 673.325 594.973 673.34 594.854 673.331C594.663 673.316 594.473 673.299 594.282 673.28C593.306 673.185 592.585 672.408 592.513 671.477L592.121 666.335C591.716 666.316 591.349 666.296 591.02 666.276C589.898 666.207 589.05 665.262 589.18 664.167C589.437 662.041 589.915 659.946 590.606 657.913C590.948 656.912 591.843 656.213 592.93 656.126Z" fill="#2297EB"/>
<path id="Vector_3" d="M596.515 654.752C599.116 654.752 600.58 653.296 600.58 650.71C600.58 648.121 599.118 646.666 596.515 646.666C593.912 646.666 592.448 648.121 592.448 650.71C592.448 653.296 593.912 654.752 596.515 654.752Z" fill="#2297EB"/>
</g>
</g>
<g id="room_3">
<path d="M1214 201L1280 201L1280 330L1214 330L1214 201Z" fill="#F5F7FA"/>
<path d="M1214 201L1214 200.5L1213.5 200.5L1213.5 201L1214 201ZM1280 201L1280.5 201L1280.5 200.5L1280 200.5L1280 201ZM1280 330L1280 330.5L1280.5 330.5L1280.5 330L1280 330ZM1214 330L1213.5 330L1213.5 330.5L1214 330.5L1214 330ZM1214 201L1214 201.5L1280 201.5L1280 201L1280 200.5L1214 200.5L1214 201ZM1280 201L1279.5 201L1279.5 330L1280 330L1280.5 330L1280.5 201L1280 201ZM1280 330L1280 329.5L1214 329.5L1214 330L1214 330.5L1280 330.5L1280 330ZM1214 330L1214.5 330L1214.5 201L1214 201L1213.5 201L1213.5 330L1214 330Z" fill="#1D2056"/>
</g>
<g id="room_4">
<path d="M704 598L770 598L770 723L704 723L704 598Z" fill="#F5F7FA"/>
<path d="M704 598L704 597.5L703.5 597.5L703.5 598L704 598ZM770 598L770.5 598L770.5 597.5L770 597.5L770 598ZM770 723L770 723.5L770.5 723.5L770.5 723L770 723ZM704 723L703.5 723L703.5 723.5L704 723.5L704 723ZM704 598L704 598.5L770 598.5L770 598L770 597.5L704 597.5L704 598ZM770 598L769.5 598L769.5 723L770 723L770.5 723L770.5 598L770 598ZM770 723L770 722.5L704 722.5L704 723L704 723.5L770 723.5L770 723ZM704 723L704.5 723L704.5 598L704 598L703.5 598L703.5 723L704 723Z" fill="#1D2056"/>
</g>
<g id="room_5">
<rect x="1280" y="201" width="73" height="32" fill="#F5F7FA"/>
<rect x="1280" y="201" width="73" height="32" stroke="#1D2056"/>
</g>
<g id="room_6">
<rect x="1280" y="233" width="73" height="129" fill="#EBEBF5"/>
<rect x="1280" y="233" width="73" height="129" stroke="#1D2056"/>
<path id="508" d="M1306.68 303.656C1305.94 303.656 1305.27 303.518 1304.66 303.242C1304.06 302.961 1303.59 302.576 1303.25 302.086C1302.91 301.596 1302.72 301.044 1302.69 300.43L1304.67 300.43C1304.7 300.732 1304.81 301.003 1304.99 301.242C1305.17 301.482 1305.41 301.669 1305.71 301.805C1306.01 301.94 1306.33 302.008 1306.68 302.008C1307.1 302.008 1307.47 301.914 1307.8 301.727C1308.12 301.539 1308.38 301.281 1308.57 300.953C1308.76 300.625 1308.85 300.253 1308.85 299.836C1308.85 299.409 1308.75 299.029 1308.56 298.695C1308.37 298.362 1308.11 298.102 1307.77 297.914C1307.43 297.721 1307.05 297.625 1306.62 297.625C1306.17 297.62 1305.79 297.695 1305.48 297.852C1305.16 298.008 1304.92 298.255 1304.74 298.594L1302.86 298.594L1303.54 292.188L1310.22 292.188L1310.22 293.891L1305.22 293.891L1304.87 296.898L1304.97 296.898C1305.2 296.643 1305.51 296.435 1305.9 296.273C1306.29 296.112 1306.72 296.031 1307.17 296.031C1307.86 296.031 1308.49 296.193 1309.05 296.516C1309.6 296.833 1310.04 297.279 1310.35 297.852C1310.67 298.419 1310.83 299.063 1310.83 299.781C1310.83 300.526 1310.65 301.193 1310.3 301.781C1309.94 302.37 1309.45 302.831 1308.82 303.164C1308.19 303.492 1307.48 303.656 1306.68 303.656ZM1316.39 303.656C1315.48 303.656 1314.71 303.43 1314.05 302.977C1313.41 302.523 1312.91 301.862 1312.56 300.992C1312.22 300.117 1312.05 299.068 1312.05 297.844C1312.05 296.62 1312.22 295.573 1312.56 294.703C1312.91 293.833 1313.41 293.172 1314.06 292.719C1314.71 292.26 1315.49 292.031 1316.39 292.031C1317.29 292.031 1318.07 292.26 1318.72 292.719C1319.37 293.172 1319.87 293.836 1320.22 294.711C1320.56 295.581 1320.73 296.625 1320.73 297.844C1320.73 299.073 1320.56 300.122 1320.22 300.992C1319.88 301.862 1319.38 302.523 1318.73 302.977C1318.08 303.43 1317.3 303.656 1316.39 303.656ZM1316.39 301.945C1316.86 301.945 1317.27 301.792 1317.62 301.484C1317.96 301.172 1318.22 300.711 1318.41 300.102C1318.59 299.487 1318.68 298.734 1318.68 297.844C1318.68 296.958 1318.59 296.208 1318.4 295.594C1318.22 294.974 1317.95 294.508 1317.61 294.195C1317.27 293.878 1316.86 293.719 1316.39 293.719C1315.92 293.719 1315.51 293.878 1315.16 294.195C1314.83 294.508 1314.56 294.974 1314.37 295.594C1314.19 296.208 1314.09 296.958 1314.09 297.844C1314.09 298.734 1314.18 299.487 1314.37 300.102C1314.55 300.711 1314.82 301.172 1315.16 301.484C1315.51 301.792 1315.92 301.945 1316.39 301.945ZM1326.23 303.656C1325.4 303.656 1324.66 303.518 1324.01 303.242C1323.36 302.966 1322.85 302.586 1322.48 302.102C1322.11 301.617 1321.93 301.073 1321.93 300.469C1321.93 300 1322.03 299.563 1322.24 299.156C1322.46 298.75 1322.75 298.414 1323.12 298.148C1323.49 297.883 1323.9 297.716 1324.35 297.648L1324.35 297.578C1323.97 297.49 1323.62 297.328 1323.32 297.094C1323.02 296.854 1322.78 296.557 1322.61 296.203C1322.44 295.849 1322.36 295.469 1322.36 295.063C1322.36 294.484 1322.53 293.966 1322.86 293.508C1323.2 293.044 1323.66 292.682 1324.24 292.422C1324.83 292.161 1325.49 292.031 1326.23 292.031C1326.96 292.031 1327.61 292.161 1328.2 292.422C1328.8 292.682 1329.26 293.044 1329.59 293.508C1329.93 293.966 1330.09 294.484 1330.09 295.063C1330.09 295.469 1330.01 295.849 1329.84 296.203C1329.66 296.557 1329.43 296.854 1329.13 297.094C1328.82 297.328 1328.48 297.49 1328.09 297.578L1328.09 297.648C1328.54 297.716 1328.95 297.883 1329.32 298.148C1329.69 298.414 1329.98 298.75 1330.2 299.156C1330.41 299.563 1330.52 300 1330.52 300.469C1330.52 301.073 1330.34 301.617 1329.97 302.102C1329.6 302.586 1329.09 302.966 1328.44 303.242C1327.79 303.518 1327.05 303.656 1326.23 303.656ZM1326.23 302.047C1326.66 302.047 1327.05 301.974 1327.38 301.828C1327.71 301.677 1327.97 301.469 1328.15 301.203C1328.33 300.938 1328.42 300.633 1328.42 300.289C1328.42 299.935 1328.33 299.617 1328.14 299.336C1327.95 299.049 1327.69 298.828 1327.35 298.672C1327.02 298.51 1326.64 298.43 1326.23 298.43C1325.81 298.43 1325.43 298.51 1325.09 298.672C1324.76 298.828 1324.49 299.049 1324.3 299.336C1324.12 299.617 1324.03 299.935 1324.03 300.289C1324.03 300.633 1324.11 300.938 1324.3 301.203C1324.48 301.469 1324.74 301.677 1325.07 301.828C1325.4 301.974 1325.79 302.047 1326.23 302.047ZM1326.23 296.922C1326.59 296.922 1326.91 296.852 1327.2 296.711C1327.48 296.565 1327.71 296.367 1327.87 296.117C1328.03 295.867 1328.11 295.581 1328.11 295.258C1328.11 294.94 1328.03 294.656 1327.87 294.406C1327.71 294.156 1327.49 293.964 1327.2 293.828C1326.92 293.693 1326.59 293.625 1326.23 293.625C1325.86 293.625 1325.53 293.693 1325.24 293.828C1324.96 293.964 1324.73 294.156 1324.58 294.406C1324.42 294.656 1324.34 294.94 1324.34 295.258C1324.34 295.581 1324.42 295.867 1324.59 296.117C1324.75 296.367 1324.97 296.565 1325.25 296.711C1325.54 296.852 1325.86 296.922 1326.23 296.922Z" fill="black"/>
</g>
<g id="room_7">
<rect x="633" y="231" width="190" height="175" fill="#EBEBF5"/>
<rect x="633" y="231" width="190" height="175" stroke="#1D2056"/>
<path id="506" d="M718.164 324.656C717.424 324.656 716.752 324.518 716.148 324.242C715.549 323.961 715.078 323.576 714.734 323.086C714.39 322.596 714.205 322.044 714.179 321.43H716.156C716.187 321.732 716.294 322.003 716.476 322.242C716.659 322.482 716.898 322.669 717.195 322.805C717.492 322.94 717.815 323.008 718.164 323.008C718.58 323.008 718.953 322.914 719.281 322.727C719.609 322.539 719.867 322.281 720.054 321.953C720.242 321.625 720.336 321.253 720.336 320.836C720.336 320.409 720.239 320.029 720.047 319.695C719.859 319.362 719.596 319.102 719.257 318.914C718.919 318.721 718.534 318.625 718.101 318.625C717.653 318.62 717.273 318.695 716.961 318.852C716.648 319.008 716.403 319.255 716.226 319.594H714.343L715.023 313.188H721.703V314.891H716.703L716.359 317.898H716.453C716.682 317.643 716.992 317.435 717.382 317.273C717.778 317.112 718.203 317.031 718.656 317.031C719.349 317.031 719.974 317.193 720.531 317.516C721.088 317.833 721.523 318.279 721.836 318.852C722.153 319.419 722.312 320.062 722.312 320.781C722.312 321.526 722.135 322.193 721.781 322.781C721.427 323.37 720.935 323.831 720.304 324.164C719.679 324.492 718.966 324.656 718.164 324.656ZM727.875 324.656C726.969 324.656 726.19 324.43 725.539 323.977C724.893 323.523 724.396 322.862 724.047 321.992C723.703 321.117 723.531 320.068 723.531 318.844C723.531 317.62 723.703 316.573 724.047 315.703C724.396 314.833 724.896 314.172 725.547 313.719C726.198 313.26 726.974 313.031 727.875 313.031C728.776 313.031 729.552 313.26 730.203 313.719C730.859 314.172 731.359 314.836 731.703 315.711C732.047 316.581 732.219 317.625 732.219 318.844C732.219 320.073 732.047 321.122 731.703 321.992C731.365 322.862 730.867 323.523 730.211 323.977C729.56 324.43 728.781 324.656 727.875 324.656ZM727.875 322.945C728.349 322.945 728.758 322.792 729.102 322.484C729.445 322.172 729.708 321.711 729.891 321.102C730.078 320.487 730.169 319.734 730.164 318.844C730.164 317.958 730.07 317.208 729.883 316.594C729.701 315.974 729.438 315.508 729.094 315.195C728.755 314.878 728.349 314.719 727.875 314.719C727.401 314.719 726.992 314.878 726.648 315.195C726.31 315.508 726.047 315.974 725.859 316.594C725.672 317.208 725.578 317.958 725.578 318.844C725.578 319.734 725.669 320.487 725.852 321.102C726.039 321.711 726.305 322.172 726.648 322.484C726.992 322.792 727.401 322.945 727.875 322.945ZM737.844 324.656C737.042 324.651 736.31 324.471 735.649 324.117C734.993 323.758 734.459 323.172 734.047 322.359C733.636 321.542 733.43 320.477 733.43 319.164C733.43 317.883 733.615 316.781 733.985 315.859C734.354 314.938 734.878 314.237 735.555 313.758C736.237 313.273 737.039 313.031 737.961 313.031C738.675 313.031 739.313 313.169 739.875 313.445C740.438 313.716 740.894 314.094 741.243 314.578C741.597 315.062 741.815 315.615 741.899 316.234H739.891C739.813 315.938 739.688 315.682 739.516 315.469C739.349 315.25 739.133 315.083 738.868 314.969C738.602 314.854 738.3 314.797 737.961 314.797C737.42 314.797 736.959 314.951 736.578 315.258C736.198 315.56 735.907 315.997 735.703 316.57C735.506 317.143 735.407 317.831 735.407 318.633H735.516C735.709 318.305 735.951 318.023 736.243 317.789C736.539 317.555 736.873 317.378 737.243 317.258C737.618 317.133 738.008 317.07 738.414 317.07C739.086 317.07 739.696 317.229 740.243 317.547C740.795 317.859 741.227 318.297 741.539 318.859C741.852 319.417 742.008 320.049 742.008 320.758C742.008 321.497 741.834 322.164 741.485 322.758C741.141 323.352 740.651 323.818 740.016 324.156C739.386 324.49 738.662 324.656 737.844 324.656ZM737.836 323.008C738.248 323.008 738.62 322.911 738.953 322.719C739.287 322.521 739.55 322.253 739.743 321.914C739.94 321.576 740.039 321.206 740.039 320.805C740.039 320.398 739.946 320.029 739.758 319.695C739.571 319.362 739.31 319.102 738.977 318.914C738.649 318.721 738.274 318.625 737.852 318.625C737.446 318.625 737.073 318.724 736.735 318.922C736.396 319.115 736.128 319.38 735.93 319.719C735.732 320.052 735.628 320.417 735.618 320.812C735.623 321.203 735.722 321.568 735.914 321.906C736.112 322.24 736.378 322.508 736.711 322.711C737.045 322.909 737.42 323.008 737.836 323.008Z" fill="black"/>
</g>
<g id="room_8">
<rect x="983" y="202" width="157" height="118" fill="#EBEBF5"/>
<rect x="983" y="202" width="157" height="118" stroke="#1D2056"/>
<path id="507" d="M1052.34 267.156C1051.6 267.156 1050.93 267.018 1050.33 266.742C1049.73 266.461 1049.26 266.076 1048.91 265.586C1048.57 265.096 1048.39 264.544 1048.36 263.93L1050.34 263.93C1050.37 264.232 1050.47 264.503 1050.66 264.742C1050.84 264.982 1051.08 265.169 1051.37 265.305C1051.67 265.44 1051.99 265.508 1052.34 265.508C1052.76 265.508 1053.13 265.414 1053.46 265.227C1053.79 265.039 1054.05 264.781 1054.23 264.453C1054.42 264.125 1054.52 263.753 1054.52 263.336C1054.52 262.909 1054.42 262.529 1054.23 262.195C1054.04 261.862 1053.78 261.602 1053.44 261.414C1053.1 261.221 1052.71 261.125 1052.28 261.125C1051.83 261.12 1051.45 261.195 1051.14 261.352C1050.83 261.508 1050.58 261.755 1050.41 262.094L1048.52 262.094L1049.2 255.688L1055.88 255.688L1055.88 257.391L1050.88 257.391L1050.54 260.398L1050.63 260.398C1050.86 260.143 1051.17 259.935 1051.56 259.773C1051.96 259.612 1052.38 259.531 1052.84 259.531C1053.53 259.531 1054.15 259.693 1054.71 260.016C1055.27 260.333 1055.7 260.779 1056.02 261.352C1056.33 261.919 1056.49 262.563 1056.49 263.281C1056.49 264.026 1056.31 264.693 1055.96 265.281C1055.61 265.87 1055.11 266.331 1054.48 266.664C1053.86 266.992 1053.15 267.156 1052.34 267.156ZM1062.05 267.156C1061.15 267.156 1060.37 266.93 1059.72 266.477C1059.07 266.023 1058.58 265.362 1058.23 264.492C1057.88 263.617 1057.71 262.568 1057.71 261.344C1057.71 260.12 1057.88 259.073 1058.23 258.203C1058.58 257.333 1059.08 256.672 1059.73 256.219C1060.38 255.76 1061.15 255.531 1062.05 255.531C1062.96 255.531 1063.73 255.76 1064.38 256.219C1065.04 256.672 1065.54 257.336 1065.88 258.211C1066.23 259.081 1066.4 260.125 1066.4 261.344C1066.4 262.573 1066.23 263.622 1065.88 264.492C1065.54 265.362 1065.05 266.023 1064.39 266.477C1063.74 266.93 1062.96 267.156 1062.05 267.156ZM1062.05 265.445C1062.53 265.445 1062.94 265.292 1063.28 264.984C1063.62 264.672 1063.89 264.211 1064.07 263.602C1064.26 262.987 1064.35 262.234 1064.34 261.344C1064.34 260.458 1064.25 259.708 1064.06 259.094C1063.88 258.474 1063.62 258.008 1063.27 257.695C1062.93 257.378 1062.53 257.219 1062.05 257.219C1061.58 257.219 1061.17 257.378 1060.83 257.695C1060.49 258.008 1060.23 258.474 1060.04 259.094C1059.85 259.708 1059.76 260.458 1059.76 261.344C1059.76 262.234 1059.85 262.987 1060.03 263.602C1060.22 264.211 1060.48 264.672 1060.83 264.984C1061.17 265.292 1061.58 265.445 1062.05 265.445ZM1072.8 257.461L1072.8 257.391L1067.1 257.391L1067.1 255.688L1074.91 255.688L1074.91 257.43L1070 267L1067.89 267L1072.8 257.461Z" fill="black"/>
</g>
<g id="room_9">
<rect x="976" y="598" width="377" height="306" fill="#EBEBF5"/>
<rect x="976" y="598" width="377" height="306" stroke="#1D2056"/>
<path id="503" d="M1154.67 757.156C1153.93 757.156 1153.26 757.018 1152.66 756.742C1152.06 756.461 1151.59 756.076 1151.24 755.586C1150.9 755.096 1150.71 754.544 1150.69 753.93L1152.66 753.93C1152.69 754.232 1152.8 754.503 1152.98 754.742C1153.17 754.982 1153.41 755.169 1153.7 755.305C1154 755.44 1154.32 755.508 1154.67 755.508C1155.09 755.508 1155.46 755.414 1155.79 755.227C1156.12 755.039 1156.37 754.781 1156.56 754.453C1156.75 754.125 1156.84 753.753 1156.84 753.336C1156.84 752.909 1156.75 752.529 1156.55 752.195C1156.37 751.862 1156.1 751.602 1155.77 751.414C1155.43 751.221 1155.04 751.125 1154.61 751.125C1154.16 751.12 1153.78 751.195 1153.47 751.352C1153.16 751.508 1152.91 751.755 1152.73 752.094L1150.85 752.094L1151.53 745.688L1158.21 745.688L1158.21 747.391L1153.21 747.391L1152.87 750.398L1152.96 750.398C1153.19 750.143 1153.5 749.935 1153.89 749.773C1154.29 749.612 1154.71 749.531 1155.16 749.531C1155.86 749.531 1156.48 749.693 1157.04 750.016C1157.6 750.333 1158.03 750.779 1158.34 751.352C1158.66 751.919 1158.82 752.563 1158.82 753.281C1158.82 754.026 1158.64 754.693 1158.29 755.281C1157.93 755.87 1157.44 756.331 1156.81 756.664C1156.19 756.992 1155.47 757.156 1154.67 757.156ZM1164.38 757.156C1163.48 757.156 1162.7 756.93 1162.05 756.477C1161.4 756.023 1160.9 755.362 1160.55 754.492C1160.21 753.617 1160.04 752.568 1160.04 751.344C1160.04 750.12 1160.21 749.073 1160.55 748.203C1160.9 747.333 1161.4 746.672 1162.05 746.219C1162.71 745.76 1163.48 745.531 1164.38 745.531C1165.28 745.531 1166.06 745.76 1166.71 746.219C1167.37 746.672 1167.87 747.336 1168.21 748.211C1168.55 749.081 1168.73 750.125 1168.73 751.344C1168.73 752.573 1168.55 753.622 1168.21 754.492C1167.87 755.362 1167.37 756.023 1166.72 756.477C1166.07 756.93 1165.29 757.156 1164.38 757.156ZM1164.38 755.445C1164.86 755.445 1165.27 755.292 1165.61 754.984C1165.95 754.672 1166.22 754.211 1166.4 753.602C1166.59 752.987 1166.68 752.234 1166.67 751.344C1166.67 750.458 1166.58 749.708 1166.39 749.094C1166.21 748.474 1165.95 748.008 1165.6 747.695C1165.26 747.378 1164.86 747.219 1164.38 747.219C1163.91 747.219 1163.5 747.378 1163.16 747.695C1162.82 748.008 1162.55 748.474 1162.37 749.094C1162.18 749.708 1162.09 750.458 1162.09 751.344C1162.09 752.234 1162.18 752.987 1162.36 753.602C1162.55 754.211 1162.81 754.672 1163.16 754.984C1163.5 755.292 1163.91 755.445 1164.38 755.445ZM1174.22 757.156C1173.42 757.156 1172.71 757.021 1172.08 756.75C1171.45 756.479 1170.95 756.099 1170.59 755.609C1170.24 755.115 1170.05 754.555 1170.03 753.93L1172.09 753.93C1172.11 754.221 1172.21 754.482 1172.4 754.711C1172.59 754.94 1172.84 755.12 1173.16 755.25C1173.47 755.375 1173.83 755.438 1174.21 755.438C1174.62 755.438 1174.99 755.367 1175.32 755.227C1175.65 755.081 1175.91 754.883 1176.09 754.633C1176.28 754.378 1176.36 754.086 1176.36 753.758C1176.36 753.409 1176.27 753.104 1176.09 752.844C1175.9 752.578 1175.63 752.372 1175.27 752.227C1174.92 752.076 1174.5 752 1174.02 752L1173.01 752L1173.01 750.43L1174.02 750.43C1174.42 750.43 1174.77 750.362 1175.08 750.227C1175.39 750.086 1175.63 749.891 1175.8 749.641C1175.97 749.391 1176.05 749.104 1176.05 748.781C1176.05 748.464 1175.98 748.185 1175.83 747.945C1175.68 747.701 1175.47 747.513 1175.2 747.383C1174.92 747.247 1174.61 747.18 1174.24 747.18C1173.89 747.18 1173.56 747.245 1173.25 747.375C1172.95 747.5 1172.7 747.68 1172.52 747.914C1172.33 748.143 1172.23 748.417 1172.22 748.734L1170.26 748.734C1170.28 748.109 1170.47 747.555 1170.82 747.07C1171.17 746.586 1171.65 746.208 1172.25 745.938C1172.85 745.667 1173.52 745.531 1174.25 745.531C1175 745.531 1175.66 745.669 1176.23 745.945C1176.8 746.221 1177.24 746.599 1177.55 747.078C1177.87 747.552 1178.03 748.081 1178.02 748.664C1178.03 749.076 1177.95 749.453 1177.77 749.797C1177.6 750.135 1177.36 750.417 1177.04 750.641C1176.72 750.865 1176.36 751.021 1175.95 751.109L1175.95 751.195C1176.48 751.263 1176.93 751.419 1177.3 751.664C1177.68 751.904 1177.97 752.211 1178.16 752.586C1178.36 752.956 1178.46 753.38 1178.45 753.859C1178.46 754.479 1178.28 755.042 1177.91 755.547C1177.54 756.047 1177.04 756.44 1176.39 756.727C1175.75 757.013 1175.03 757.156 1174.22 757.156Z" fill="black"/>
</g>
<rect id="Rectangle 240653344" x="972" y="827" width="5" height="32" fill="#EBEBF5"/>
<g id="room_10">
<rect x="976" y="362" width="344" height="236" fill="#EBEBF5"/>
<rect x="976" y="362" width="344" height="236" stroke="#1D2056"/>
<path id="501" d="M1139.55 486.156C1138.81 486.156 1138.14 486.018 1137.54 485.742C1136.94 485.461 1136.47 485.076 1136.12 484.586C1135.78 484.096 1135.6 483.544 1135.57 482.93L1137.55 482.93C1137.58 483.232 1137.68 483.503 1137.87 483.742C1138.05 483.982 1138.29 484.169 1138.59 484.305C1138.88 484.44 1139.21 484.508 1139.55 484.508C1139.97 484.508 1140.34 484.414 1140.67 484.227C1141 484.039 1141.26 483.781 1141.44 483.453C1141.63 483.125 1141.73 482.753 1141.73 482.336C1141.73 481.909 1141.63 481.529 1141.44 481.195C1141.25 480.862 1140.99 480.602 1140.65 480.414C1140.31 480.221 1139.92 480.125 1139.49 480.125C1139.04 480.12 1138.66 480.195 1138.35 480.352C1138.04 480.508 1137.79 480.755 1137.62 481.094L1135.73 481.094L1136.41 474.688L1143.09 474.688L1143.09 476.391L1138.09 476.391L1137.75 479.398L1137.84 479.398C1138.07 479.143 1138.38 478.935 1138.77 478.773C1139.17 478.612 1139.59 478.531 1140.05 478.531C1140.74 478.531 1141.36 478.693 1141.92 479.016C1142.48 479.333 1142.91 479.779 1143.23 480.352C1143.54 480.919 1143.7 481.563 1143.7 482.281C1143.7 483.026 1143.53 483.693 1143.17 484.281C1142.82 484.87 1142.33 485.331 1141.69 485.664C1141.07 485.992 1140.36 486.156 1139.55 486.156ZM1149.27 486.156C1148.36 486.156 1147.58 485.93 1146.93 485.477C1146.28 485.023 1145.79 484.362 1145.44 483.492C1145.09 482.617 1144.92 481.568 1144.92 480.344C1144.92 479.12 1145.09 478.073 1145.44 477.203C1145.79 476.333 1146.29 475.672 1146.94 475.219C1147.59 474.76 1148.36 474.531 1149.27 474.531C1150.17 474.531 1150.94 474.76 1151.59 475.219C1152.25 475.672 1152.75 476.336 1153.09 477.211C1153.44 478.081 1153.61 479.125 1153.61 480.344C1153.61 481.573 1153.44 482.622 1153.09 483.492C1152.76 484.362 1152.26 485.023 1151.6 485.477C1150.95 485.93 1150.17 486.156 1149.27 486.156ZM1149.27 484.445C1149.74 484.445 1150.15 484.292 1150.49 483.984C1150.84 483.672 1151.1 483.211 1151.28 482.602C1151.47 481.987 1151.56 481.234 1151.55 480.344C1151.55 479.458 1151.46 478.708 1151.27 478.094C1151.09 477.474 1150.83 477.008 1150.48 476.695C1150.15 476.378 1149.74 476.219 1149.27 476.219C1148.79 476.219 1148.38 476.378 1148.04 476.695C1147.7 477.008 1147.44 477.474 1147.25 478.094C1147.06 478.708 1146.97 479.458 1146.97 480.344C1146.97 481.234 1147.06 481.987 1147.24 482.602C1147.43 483.211 1147.7 483.672 1148.04 483.984C1148.38 484.292 1148.79 484.445 1149.27 484.445ZM1159.59 486L1157.54 486L1157.54 476.672L1157.48 476.672L1154.83 478.367L1154.83 476.5L1157.63 474.688L1159.59 474.688L1159.59 486Z" fill="black"/>
</g>
<g id="room_11">
<rect x="920" y="362" width="56" height="55" fill="#F5F7FA"/>
<rect x="920" y="362" width="56" height="55" stroke="#1D2056"/>
</g>
<g id="room_12">
<rect x="920" y="543" width="56" height="55" fill="#F5F7FA"/>
<rect x="920" y="543" width="56" height="55" stroke="#1D2056"/>
</g>
<g id="room_13">
<rect x="920" y="417" width="56" height="126" fill="#EBEBF5"/>
<rect x="920" y="417" width="56" height="126" stroke="#1D2056"/>
<path id="502" d="M938.406 486.156C937.666 486.156 936.994 486.018 936.39 485.742C935.791 485.461 935.32 485.076 934.976 484.586C934.632 484.096 934.448 483.544 934.422 482.93L936.398 482.93C936.429 483.232 936.536 483.503 936.718 483.742C936.901 483.982 937.14 484.169 937.437 484.305C937.734 484.44 938.057 484.508 938.406 484.508C938.823 484.508 939.195 484.414 939.523 484.227C939.851 484.039 940.109 483.781 940.297 483.453C940.484 483.125 940.578 482.753 940.578 482.336C940.578 481.909 940.481 481.529 940.289 481.195C940.101 480.862 939.838 480.602 939.5 480.414C939.161 480.221 938.776 480.125 938.343 480.125C937.896 480.12 937.515 480.195 937.203 480.352C936.89 480.508 936.646 480.755 936.468 481.094L934.586 481.094L935.265 474.688L941.945 474.688L941.945 476.391L936.945 476.391L936.601 479.398L936.695 479.398C936.924 479.143 937.234 478.935 937.625 478.773C938.021 478.612 938.445 478.531 938.898 478.531C939.591 478.531 940.216 478.693 940.773 479.016C941.33 479.333 941.765 479.779 942.078 480.352C942.396 480.919 942.554 481.563 942.554 482.281C942.554 483.026 942.377 483.693 942.023 484.281C941.669 484.87 941.177 485.331 940.547 485.664C939.922 485.992 939.208 486.156 938.406 486.156ZM948.117 486.156C947.211 486.156 946.432 485.93 945.781 485.477C945.135 485.023 944.638 484.362 944.289 483.492C943.945 482.617 943.773 481.568 943.773 480.344C943.773 479.12 943.945 478.073 944.289 477.203C944.638 476.333 945.138 475.672 945.789 475.219C946.44 474.76 947.216 474.531 948.117 474.531C949.018 474.531 949.794 474.76 950.445 475.219C951.102 475.672 951.602 476.336 951.945 477.211C952.289 478.081 952.461 479.125 952.461 480.344C952.461 481.573 952.289 482.622 951.945 483.492C951.607 484.362 951.109 485.023 950.453 485.477C949.802 485.93 949.023 486.156 948.117 486.156ZM948.117 484.445C948.591 484.445 949 484.292 949.344 483.984C949.687 483.672 949.951 483.211 950.133 482.602C950.32 481.987 950.411 481.234 950.406 480.344C950.406 479.458 950.312 478.708 950.125 478.094C949.943 477.474 949.68 477.008 949.336 476.695C948.997 476.378 948.591 476.219 948.117 476.219C947.643 476.219 947.234 476.378 946.891 476.695C946.552 477.008 946.289 477.474 946.102 478.094C945.914 478.708 945.82 479.458 945.82 480.344C945.82 481.234 945.911 481.987 946.094 482.602C946.281 483.211 946.547 483.672 946.891 483.984C947.234 484.292 947.643 484.445 948.117 484.445ZM953.844 484.523L957.836 480.68C958.274 480.242 958.612 479.885 958.852 479.609C959.091 479.328 959.274 479.049 959.399 478.773C959.524 478.497 959.586 478.206 959.586 477.898C959.586 477.56 959.5 477.26 959.328 477C959.157 476.74 958.925 476.539 958.633 476.398C958.341 476.253 958.008 476.18 957.633 476.18C957.258 476.18 956.925 476.258 956.633 476.414C956.341 476.565 956.117 476.784 955.961 477.07C955.805 477.357 955.727 477.688 955.727 478.063L953.797 478.063C953.797 477.359 953.961 476.742 954.289 476.211C954.617 475.674 955.073 475.26 955.657 474.969C956.245 474.677 956.914 474.531 957.664 474.531C958.425 474.531 959.097 474.672 959.68 474.953C960.263 475.234 960.716 475.622 961.039 476.117C961.367 476.612 961.532 477.174 961.532 477.805C961.532 478.242 961.448 478.664 961.282 479.07C961.115 479.477 960.828 479.924 960.422 480.414C960.021 480.904 959.446 481.503 958.696 482.211L956.68 484.211L956.68 484.297L961.703 484.297L961.703 486L953.852 486L953.844 484.523Z" fill="black"/>
</g>
<g id="room_14">
<rect x="1296" y="598" width="57" height="110" fill="#F5F7FA"/>
<rect x="1296" y="598" width="57" height="110" stroke="#1D2056"/>
</g>
<g id="room_15">
<rect x="1320" y="362" width="33" height="236" fill="#F5F7FA"/>
<rect x="1320" y="362" width="33" height="236" stroke="#1D2056"/>
</g>
<g id="room_16">
<rect x="823" y="202" width="160" height="118" fill="#EBEBF5"/>
<rect x="823" y="202" width="160" height="118" stroke="#1D2056"/>
</g>
<g id="room_17">
<rect x="1161" y="319" width="21" height="117" transform="rotate(-180 1161 319)" fill="#F5F7FA"/>
<rect x="1161" y="319" width="21" height="117" transform="rotate(-180 1161 319)" stroke="#1D2056"/>
</g>
<g id="Frame 2087332188">
<g id="stair">
<rect id="Rectangle 240653086" x="1246" y="275" width="6" height="34" transform="rotate(-90 1246 275)" fill="white" stroke="#1D2056"/>
</g>
<g id="stair_2">
<rect id="Rectangle 240653086_2" x="1246" y="269" width="6" height="34" transform="rotate(-90 1246 269)" fill="white" stroke="#1D2056"/>
</g>
<g id="stair_3">
<rect id="Rectangle 240653086_3" x="1246" y="263" width="6" height="34" transform="rotate(-90 1246 263)" fill="white" stroke="#1D2056"/>
</g>
<g id="stair_4">
<rect id="Rectangle 240653086_4" x="1246" y="257" width="6" height="34" transform="rotate(-90 1246 257)" fill="white" stroke="#1D2056"/>
</g>
<g id="stair_5">
<rect id="Rectangle 240653086_5" x="1246" y="251" width="6" height="34" transform="rotate(-90 1246 251)" fill="white" stroke="#1D2056"/>
</g>
<g id="stair_6">
<rect id="Rectangle 240653086_6" x="1246" y="245" width="6" height="34" transform="rotate(-90 1246 245)" fill="white" stroke="#1D2056"/>
</g>
<g id="stair_7">
<rect id="Rectangle 240653086_7" x="1246" y="239" width="6" height="34" transform="rotate(-90 1246 239)" fill="white" stroke="#1D2056"/>
</g>
</g>
<g id="Frame 2087332194">
<g id="stair_8">
<rect id="Rectangle 240653086_8" x="1324" y="683" width="6" height="29" transform="rotate(-90 1324 683)" fill="white" stroke="#1D2056"/>
</g>
<g id="stair_9">
<rect id="Rectangle 240653086_9" x="1324" y="677" width="6" height="29" transform="rotate(-90 1324 677)" fill="white" stroke="#1D2056"/>
</g>
<g id="stair_10">
<rect id="Rectangle 240653086_10" x="1324" y="671" width="6" height="29" transform="rotate(-90 1324 671)" fill="white" stroke="#1D2056"/>
</g>
<g id="stair_11">
<rect id="Rectangle 240653086_11" x="1324" y="665" width="6" height="29" transform="rotate(-90 1324 665)" fill="white" stroke="#1D2056"/>
</g>
<g id="stair_12">
<rect id="Rectangle 240653086_12" x="1324" y="659" width="6" height="29" transform="rotate(-90 1324 659)" fill="white" stroke="#1D2056"/>
</g>
<g id="stair_13">
<rect id="Rectangle 240653086_13" x="1324" y="653" width="6" height="29" transform="rotate(-90 1324 653)" fill="white" stroke="#1D2056"/>
</g>
<g id="stair_14">
<rect id="Rectangle 240653086_14" x="1324" y="647" width="6" height="29" transform="rotate(-90 1324 647)" fill="white" stroke="#1D2056"/>
</g>
</g>
<g id="Frame 2087332192">
<g id="stair_15">
<rect id="Rectangle 240653086_15" x="736" y="690" width="6" height="34" transform="rotate(-90 736 690)" fill="white" stroke="#1D2056"/>
</g>
<g id="stair_16">
<rect id="Rectangle 240653086_16" x="736" y="684" width="6" height="34" transform="rotate(-90 736 684)" fill="white" stroke="#1D2056"/>
</g>
<g id="stair_17">
<rect id="Rectangle 240653086_17" x="736" y="678" width="6" height="34" transform="rotate(-90 736 678)" fill="white" stroke="#1D2056"/>
</g>
<g id="stair_18">
<rect id="Rectangle 240653086_18" x="736" y="672" width="6" height="34" transform="rotate(-90 736 672)" fill="white" stroke="#1D2056"/>
</g>
<g id="stair_19">
<rect id="Rectangle 240653086_19" x="736" y="666" width="6" height="34" transform="rotate(-90 736 666)" fill="white" stroke="#1D2056"/>
</g>
<g id="stair_20">
<rect id="Rectangle 240653086_20" x="736" y="660" width="6" height="34" transform="rotate(-90 736 660)" fill="white" stroke="#1D2056"/>
</g>
<g id="stair_21">
<rect id="Rectangle 240653086_21" x="736" y="654" width="6" height="34" transform="rotate(-90 736 654)" fill="white" stroke="#1D2056"/>
</g>
</g>
<g id="Frame 2087332191">
<g id="stair_22">
<rect id="Rectangle 240653086_22" x="1214" y="275" width="6" height="32" transform="rotate(-90 1214 275)" fill="white" stroke="#1D2056"/>
</g>
<g id="stair_23">
<rect id="Rectangle 240653086_23" x="1214" y="269" width="6" height="32" transform="rotate(-90 1214 269)" fill="white" stroke="#1D2056"/>
</g>
<g id="stair_24">
<rect id="Rectangle 240653086_24" x="1214" y="263" width="6" height="32" transform="rotate(-90 1214 263)" fill="white" stroke="#1D2056"/>
</g>
<g id="stair_25">
<rect id="Rectangle 240653086_25" x="1214" y="257" width="6" height="32" transform="rotate(-90 1214 257)" fill="white" stroke="#1D2056"/>
</g>
<g id="stair_26">
<rect id="Rectangle 240653086_26" x="1214" y="251" width="6" height="32" transform="rotate(-90 1214 251)" fill="white" stroke="#1D2056"/>
</g>
<g id="stair_27">
<rect id="Rectangle 240653086_27" x="1214" y="245" width="6" height="32" transform="rotate(-90 1214 245)" fill="white" stroke="#1D2056"/>
</g>
<g id="stair_28">
<rect id="Rectangle 240653086_28" x="1214" y="239" width="6" height="32" transform="rotate(-90 1214 239)" fill="white" stroke="#1D2056"/>
</g>
</g>
<g id="Frame 2087332195">
<g id="stair_29">
<rect id="Rectangle 240653086_29" x="1296" y="683" width="6" height="28" transform="rotate(-90 1296 683)" fill="white" stroke="#1D2056"/>
</g>
<g id="stair_30">
<rect id="Rectangle 240653086_30" x="1296" y="677" width="6" height="28" transform="rotate(-90 1296 677)" fill="white" stroke="#1D2056"/>
</g>
<g id="stair_31">
<rect id="Rectangle 240653086_31" x="1296" y="671" width="6" height="28" transform="rotate(-90 1296 671)" fill="white" stroke="#1D2056"/>
</g>
<g id="stair_32">
<rect id="Rectangle 240653086_32" x="1296" y="665" width="6" height="28" transform="rotate(-90 1296 665)" fill="white" stroke="#1D2056"/>
</g>
<g id="stair_33">
<rect id="Rectangle 240653086_33" x="1296" y="659" width="6" height="28" transform="rotate(-90 1296 659)" fill="white" stroke="#1D2056"/>
</g>
<g id="stair_34">
<rect id="Rectangle 240653086_34" x="1296" y="653" width="6" height="28" transform="rotate(-90 1296 653)" fill="white" stroke="#1D2056"/>
</g>
<g id="stair_35">
<rect id="Rectangle 240653086_35" x="1296" y="647" width="6" height="28" transform="rotate(-90 1296 647)" fill="white" stroke="#1D2056"/>
</g>
</g>
<g id="Frame 2087332193">
<g id="stair_36">
<rect id="Rectangle 240653086_36" x="704" y="690" width="6" height="32" transform="rotate(-90 704 690)" fill="white" stroke="#1D2056"/>
</g>
<g id="stair_37">
<rect id="Rectangle 240653086_37" x="704" y="684" width="6" height="32" transform="rotate(-90 704 684)" fill="white" stroke="#1D2056"/>
</g>
<g id="stair_38">
<rect id="Rectangle 240653086_38" x="704" y="678" width="6" height="32" transform="rotate(-90 704 678)" fill="white" stroke="#1D2056"/>
</g>
<g id="stair_39">
<rect id="Rectangle 240653086_39" x="704" y="672" width="6" height="32" transform="rotate(-90 704 672)" fill="white" stroke="#1D2056"/>
</g>
<g id="stair_40">
<rect id="Rectangle 240653086_40" x="704" y="666" width="6" height="32" transform="rotate(-90 704 666)" fill="white" stroke="#1D2056"/>
</g>
<g id="stair_41">
<rect id="Rectangle 240653086_41" x="704" y="660" width="6" height="32" transform="rotate(-90 704 660)" fill="white" stroke="#1D2056"/>
</g>
<g id="stair_42">
<rect id="Rectangle 240653086_42" x="704" y="654" width="6" height="32" transform="rotate(-90 704 654)" fill="white" stroke="#1D2056"/>
</g>
</g>
<g id="door">
<path id="Intersect" d="M760 598L744 598C744 606.837 751.163 614 760 614L760 598Z" fill="white"/>
<path id="Intersect_2" d="M760 598L760 614C751.163 614 744 606.837 744 598" stroke="#1D2056"/>
<rect id="Rectangle 240653104" width="15" height="0.5" transform="matrix(1 8.74228e-08 8.74228e-08 -1 744.5 598)" fill="white"/>
<rect id="Rectangle 240653105" width="1" height="0.5" transform="matrix(1 8.74228e-08 8.74228e-08 -1 743.5 598)" fill="#1D2056"/>
<rect id="Rectangle 240653106" width="1" height="0.5" transform="matrix(1 8.74228e-08 8.74228e-08 -1 759.5 598)" fill="#1D2056"/>
</g>
<g id="door_2">
<path id="Intersect_3" d="M1214 320L1214 304C1222.84 304 1230 311.163 1230 320L1214 320Z" fill="white"/>
<path id="Intersect_4" d="M1214 320L1230 320C1230 311.163 1222.84 304 1214 304" stroke="#1D2056"/>
<rect id="Rectangle 240653104_2" x="1214" y="304.5" width="15" height="0.5" transform="rotate(90 1214 304.5)" fill="white"/>
<rect id="Rectangle 240653105_2" x="1214" y="303.5" width="1" height="0.5" transform="rotate(90 1214 303.5)" fill="#1D2056"/>
<rect id="Rectangle 240653106_2" x="1214" y="319.5" width="1" height="0.5" transform="rotate(90 1214 319.5)" fill="#1D2056"/>
</g>
<g id="door_3">
<path id="Intersect_5" d="M1280 354L1280 338C1288.84 338 1296 345.163 1296 354L1280 354Z" fill="white"/>
<path id="Intersect_6" d="M1280 354L1296 354C1296 345.163 1288.84 338 1280 338" stroke="#1D2056"/>
<rect id="Rectangle 240653104_3" x="1280" y="338.5" width="15" height="0.5" transform="rotate(90 1280 338.5)" fill="white"/>
<rect id="Rectangle 240653105_3" x="1280" y="337.5" width="1" height="0.5" transform="rotate(90 1280 337.5)" fill="#1D2056"/>
<rect id="Rectangle 240653106_3" x="1280" y="353.5" width="1" height="0.5" transform="rotate(90 1280 353.5)" fill="#1D2056"/>
</g>
<g id="door_4">
<path id="Intersect_7" d="M1128 320H1112C1112 311.163 1119.16 304 1128 304V320Z" fill="white"/>
<path id="Intersect_8" d="M1128 320V304C1119.16 304 1112 311.163 1112 320" stroke="#1D2056"/>
<rect id="Rectangle 240653104_4" x="1112.5" y="320" width="15" height="0.5" fill="white"/>
<rect id="Rectangle 240653105_4" x="1111.5" y="320" width="1" height="0.5" fill="#1D2056"/>
<rect id="Rectangle 240653106_4" x="1127.5" y="320" width="1" height="0.5" fill="#1D2056"/>
</g>
<g id="door_5">
<path id="Intersect_9" d="M976 635L976 651C984.837 651 992 643.837 992 635L976 635Z" fill="white"/>
<path id="Intersect_10" d="M976 635L992 635C992 643.837 984.837 651 976 651" stroke="#1D2056"/>
<rect id="Rectangle 240653104_5" width="15" height="0.5" transform="matrix(-4.37114e-08 -1 -1 4.37114e-08 976 650.5)" fill="white"/>
<rect id="Rectangle 240653105_5" width="1" height="0.5" transform="matrix(-4.37114e-08 -1 -1 4.37114e-08 976 651.5)" fill="#1D2056"/>
<rect id="Rectangle 240653106_5" width="1" height="0.5" transform="matrix(-4.37114e-08 -1 -1 4.37114e-08 976 635.5)" fill="#1D2056"/>
</g>
<g id="door_6">
<path id="Intersect_11" d="M976 587L976 571C967.163 571 960 578.163 960 587L976 587Z" fill="white"/>
<path id="Intersect_12" d="M976 587L960 587C960 578.163 967.163 571 976 571" stroke="#1D2056"/>
<rect id="Rectangle 240653104_6" width="15" height="0.5" transform="matrix(4.37114e-08 1 1 -4.37114e-08 976 571.5)" fill="white"/>
<rect id="Rectangle 240653105_6" width="1" height="0.5" transform="matrix(4.37114e-08 1 1 -4.37114e-08 976 570.5)" fill="#1D2056"/>
<rect id="Rectangle 240653106_6" width="1" height="0.5" transform="matrix(4.37114e-08 1 1 -4.37114e-08 976 586.5)" fill="#1D2056"/>
</g>
<g id="door_7">
<path id="Intersect_13" d="M976 406L976 390C967.163 390 960 397.163 960 406L976 406Z" fill="white"/>
<path id="Intersect_14" d="M976 406L960 406C960 397.163 967.163 390 976 390" stroke="#1D2056"/>
<rect id="Rectangle 240653104_7" width="15" height="0.5" transform="matrix(4.37114e-08 1 1 -4.37114e-08 976 390.5)" fill="white"/>
<rect id="Rectangle 240653105_7" width="1" height="0.5" transform="matrix(4.37114e-08 1 1 -4.37114e-08 976 389.5)" fill="#1D2056"/>
<rect id="Rectangle 240653106_7" width="1" height="0.5" transform="matrix(4.37114e-08 1 1 -4.37114e-08 976 405.5)" fill="#1D2056"/>
</g>
<g id="door_8">
<path id="Intersect_15" d="M920 587L920 571C911.163 571 904 578.163 904 587L920 587Z" fill="white"/>
<path id="Intersect_16" d="M920 587L904 587C904 578.163 911.163 571 920 571" stroke="#1D2056"/>
<rect id="Rectangle 240653104_8" width="15" height="0.5" transform="matrix(4.37114e-08 1 1 -4.37114e-08 920 571.5)" fill="white"/>
<rect id="Rectangle 240653105_8" width="1" height="0.5" transform="matrix(4.37114e-08 1 1 -4.37114e-08 920 570.5)" fill="#1D2056"/>
<rect id="Rectangle 240653106_8" width="1" height="0.5" transform="matrix(4.37114e-08 1 1 -4.37114e-08 920 586.5)" fill="#1D2056"/>
</g>
<g id="door_9">
<path id="Intersect_17" d="M920 406L920 390C911.163 390 904 397.163 904 406L920 406Z" fill="white"/>
<path id="Intersect_18" d="M920 406L904 406C904 397.163 911.163 390 920 390" stroke="#1D2056"/>
<rect id="Rectangle 240653104_9" width="15" height="0.5" transform="matrix(4.37114e-08 1 1 -4.37114e-08 920 390.5)" fill="white"/>
<rect id="Rectangle 240653105_9" width="1" height="0.5" transform="matrix(4.37114e-08 1 1 -4.37114e-08 920 389.5)" fill="#1D2056"/>
<rect id="Rectangle 240653106_9" width="1" height="0.5" transform="matrix(4.37114e-08 1 1 -4.37114e-08 920 405.5)" fill="#1D2056"/>
</g>
<g id="door_10">
<path id="Intersect_19" d="M1296 610L1296 626C1304.84 626 1312 618.837 1312 610L1296 610Z" fill="white"/>
<path id="Intersect_20" d="M1296 610L1312 610C1312 618.837 1304.84 626 1296 626" stroke="#1D2056"/>
<rect id="Rectangle 240653104_10" width="15" height="0.5" transform="matrix(-4.37114e-08 -1 -1 4.37114e-08 1296 625.5)" fill="white"/>
<rect id="Rectangle 240653105_10" width="1" height="0.5" transform="matrix(-4.37114e-08 -1 -1 4.37114e-08 1296 626.5)" fill="#1D2056"/>
<rect id="Rectangle 240653106_10" width="1" height="0.5" transform="matrix(-4.37114e-08 -1 -1 4.37114e-08 1296 610.5)" fill="#1D2056"/>
</g>
<g id="door_11">
<path id="Intersect_21" d="M976 555L976 571C967.163 571 960 563.837 960 555L976 555Z" fill="white"/>
<path id="Intersect_22" d="M976 555L960 555C960 563.837 967.163 571 976 571" stroke="#1D2056"/>
<rect id="Rectangle 240653104_11" x="976" y="570.5" width="15" height="0.5" transform="rotate(-90 976 570.5)" fill="white"/>
<rect id="Rectangle 240653105_11" x="976" y="571.5" width="1" height="0.5" transform="rotate(-90 976 571.5)" fill="#1D2056"/>
<rect id="Rectangle 240653106_11" x="976" y="555.5" width="1" height="0.5" transform="rotate(-90 976 555.5)" fill="#1D2056"/>
</g>
<g id="door_12">
<path id="Intersect_23" d="M976 374L976 390C967.163 390 960 382.837 960 374L976 374Z" fill="white"/>
<path id="Intersect_24" d="M976 374L960 374C960 382.837 967.163 390 976 390" stroke="#1D2056"/>
<rect id="Rectangle 240653104_12" x="976" y="389.5" width="15" height="0.5" transform="rotate(-90 976 389.5)" fill="white"/>
<rect id="Rectangle 240653105_12" x="976" y="390.5" width="1" height="0.5" transform="rotate(-90 976 390.5)" fill="#1D2056"/>
<rect id="Rectangle 240653106_12" x="976" y="374.5" width="1" height="0.5" transform="rotate(-90 976 374.5)" fill="#1D2056"/>
</g>
<g id="door_13">
<path id="Intersect_25" d="M1344 598L1328 598C1328 589.163 1335.16 582 1344 582L1344 598Z" fill="white"/>
<path id="Intersect_26" d="M1344 598L1344 582C1335.16 582 1328 589.163 1328 598" stroke="#1D2056"/>
<rect id="Rectangle 240653104_13" x="1328.5" y="598" width="15" height="0.5" fill="white"/>
<rect id="Rectangle 240653105_13" x="1327.5" y="598" width="1" height="0.5" fill="#1D2056"/>
<rect id="Rectangle 240653106_13" x="1343.5" y="598" width="1" height="0.5" fill="#1D2056"/>
</g>
<g id="door_14">
<path id="Intersect_27" d="M976 667L976 651C984.837 651 992 658.163 992 667L976 667Z" fill="white"/>
<path id="Intersect_28" d="M976 667L992 667C992 658.163 984.837 651 976 651" stroke="#1D2056"/>
<rect id="Rectangle 240653104_14" x="976" y="651.5" width="15" height="0.5" transform="rotate(90 976 651.5)" fill="white"/>
<rect id="Rectangle 240653105_14" x="976" y="650.5" width="1" height="0.5" transform="rotate(90 976 650.5)" fill="#1D2056"/>
<rect id="Rectangle 240653106_14" x="976" y="666.5" width="1" height="0.5" transform="rotate(90 976 666.5)" fill="#1D2056"/>
</g>
<g id="door_15">
<path id="Intersect_29" d="M920 555L920 571C911.163 571 904 563.837 904 555L920 555Z" fill="white"/>
<path id="Intersect_30" d="M920 555L904 555C904 563.837 911.163 571 920 571" stroke="#1D2056"/>
<rect id="Rectangle 240653104_15" x="920" y="570.5" width="15" height="0.5" transform="rotate(-90 920 570.5)" fill="white"/>
<rect id="Rectangle 240653105_15" x="920" y="571.5" width="1" height="0.5" transform="rotate(-90 920 571.5)" fill="#1D2056"/>
<rect id="Rectangle 240653106_15" x="920" y="555.5" width="1" height="0.5" transform="rotate(-90 920 555.5)" fill="#1D2056"/>
</g>
<g id="door_16">
<path id="Intersect_31" d="M920 374L920 390C911.163 390 904 382.837 904 374L920 374Z" fill="white"/>
<path id="Intersect_32" d="M920 374L904 374C904 382.837 911.163 390 920 390" stroke="#1D2056"/>
<rect id="Rectangle 240653104_16" x="920" y="389.5" width="15" height="0.5" transform="rotate(-90 920 389.5)" fill="white"/>
<rect id="Rectangle 240653105_16" x="920" y="390.5" width="1" height="0.5" transform="rotate(-90 920 390.5)" fill="#1D2056"/>
<rect id="Rectangle 240653106_16" x="920" y="374.5" width="1" height="0.5" transform="rotate(-90 920 374.5)" fill="#1D2056"/>
</g>
<g id="door_17">
<path id="Intersect_33" d="M1001 320L1017 320C1017 311.163 1009.84 304 1001 304L1001 320Z" fill="white"/>
<path id="Intersect_34" d="M1001 320L1001 304C1009.84 304 1017 311.163 1017 320" stroke="#1D2056"/>
<rect id="Rectangle 240653104_17" width="15" height="0.5" transform="matrix(-1 -1.74846e-07 -1.74846e-07 1 1016.5 320)" fill="white"/>
<rect id="Rectangle 240653105_17" width="1" height="0.5" transform="matrix(-1 -1.74846e-07 -1.74846e-07 1 1017.5 320)" fill="#1D2056"/>
<rect id="Rectangle 240653106_17" width="1" height="0.5" transform="matrix(-1 -1.74846e-07 -1.74846e-07 1 1001.5 320)" fill="#1D2056"/>
</g>
<g id="door_18">
<path id="Intersect_35" d="M841 320L857 320C857 311.163 849.837 304 841 304L841 320Z" fill="white"/>
<path id="Intersect_36" d="M841 320L841 304C849.837 304 857 311.163 857 320" stroke="#1D2056"/>
<rect id="Rectangle 240653104_18" width="15" height="0.5" transform="matrix(-1 -1.74846e-07 -1.74846e-07 1 856.5 320)" fill="white"/>
<rect id="Rectangle 240653105_18" width="1" height="0.5" transform="matrix(-1 -1.74846e-07 -1.74846e-07 1 857.5 320)" fill="#1D2056"/>
<rect id="Rectangle 240653106_18" width="1" height="0.5" transform="matrix(-1 -1.74846e-07 -1.74846e-07 1 841.5 320)" fill="#1D2056"/>
</g>
<g id="door_19">
<path id="Intersect_37" d="M823 373L823 389C814.163 389 807 381.837 807 373L823 373Z" fill="white"/>
<path id="Intersect_38" d="M823 373L807 373C807 381.837 814.163 389 823 389" stroke="#1D2056"/>
<rect id="Rectangle 240653104_19" x="823" y="388.5" width="15" height="0.5" transform="rotate(-90 823 388.5)" fill="white"/>
<rect id="Rectangle 240653105_19" x="823" y="389.5" width="1" height="0.5" transform="rotate(-90 823 389.5)" fill="#1D2056"/>
<rect id="Rectangle 240653106_19" x="823" y="373.5" width="1" height="0.5" transform="rotate(-90 823 373.5)" fill="#1D2056"/>
</g>
<g id="door_20">
<path id="Intersect_39" d="M692 639L676 639C676 647.837 683.163 655 692 655L692 639Z" fill="white"/>
<path id="Intersect_40" d="M692 639L692 655C683.163 655 676 647.837 676 639" stroke="#1D2056"/>
<rect id="Rectangle 240653104_20" width="15" height="0.5" transform="matrix(1 1.74846e-07 1.74846e-07 -1 676.5 639)" fill="white"/>
<rect id="Rectangle 240653105_20" width="1" height="0.5" transform="matrix(1 1.74846e-07 1.74846e-07 -1 675.5 639)" fill="#1D2056"/>
<rect id="Rectangle 240653106_20" width="1" height="0.5" transform="matrix(1 1.74846e-07 1.74846e-07 -1 691.5 639)" fill="#1D2056"/>
</g>
<g id="door_21">
<path id="Intersect_41" d="M633 609L633 625C624.163 625 617 617.837 617 609L633 609Z" fill="white"/>
<path id="Intersect_42" d="M633 609L617 609C617 617.837 624.163 625 633 625" stroke="#1D2056"/>
<rect id="Rectangle 240653104_21" x="633" y="624.5" width="15" height="0.5" transform="rotate(-90 633 624.5)" fill="white"/>
<rect id="Rectangle 240653105_21" x="633" y="625.5" width="1" height="0.5" transform="rotate(-90 633 625.5)" fill="#1D2056"/>
<rect id="Rectangle 240653106_21" x="633" y="609.5" width="1" height="0.5" transform="rotate(-90 633 609.5)" fill="#1D2056"/>
</g>
<g id="map_stairs" clip-path="url(#clip0_1145_29510)">
<rect id="Rectangle 240653084" x="1230" y="238.236" width="32" height="32" rx="4" fill="#474F5A"/>
<path id="Subtract" d="M1255.33 240.904C1256.81 240.904 1258 242.098 1258 243.57L1258 264.904C1258 266.377 1256.81 267.57 1255.33 267.57L1236.67 267.57C1235.19 267.57 1234 266.377 1234 264.904L1234 243.57C1234 242.098 1235.19 240.904 1236.67 240.904L1255.33 240.904ZM1238 260.904C1237.26 260.904 1236.67 261.501 1236.67 262.237L1236.67 264.904L1255.33 264.904L1255.33 260.904L1238 260.904ZM1243.33 254.904C1242.6 254.904 1242 255.501 1242 256.237L1242 258.904L1255.33 258.904L1255.33 254.904L1243.33 254.904ZM1248.67 248.904C1247.93 248.904 1247.33 249.501 1247.33 250.237L1247.33 252.904L1255.33 252.904L1255.33 248.904L1248.67 248.904Z" fill="white"/>
</g>
<g id="map_stairs_2" clip-path="url(#clip1_1145_29510)">
<rect id="Rectangle 240653084_2" x="1308" y="646" width="32" height="32" rx="4" fill="#474F5A"/>
<path id="Subtract_2" d="M1333.33 648.668C1334.81 648.668 1336 649.861 1336 651.334L1336 672.668C1336 674.141 1334.81 675.334 1333.33 675.334L1314.67 675.334C1313.19 675.334 1312 674.141 1312 672.668L1312 651.334C1312 649.861 1313.19 648.668 1314.67 648.668L1333.33 648.668ZM1316 668.668C1315.26 668.668 1314.67 669.265 1314.67 670.001L1314.67 672.668L1333.33 672.668L1333.33 668.668L1316 668.668ZM1321.33 662.668C1320.6 662.668 1320 663.265 1320 664.001L1320 666.668L1333.33 666.668L1333.33 662.668L1321.33 662.668ZM1326.67 656.668C1325.93 656.668 1325.33 657.265 1325.33 658.001L1325.33 660.668L1333.33 660.668L1333.33 656.668L1326.67 656.668Z" fill="white"/>
</g>
<g id="map_stairs_3" clip-path="url(#clip2_1145_29510)">
<rect id="Rectangle 240653084_3" x="720" y="653.236" width="32" height="32" rx="4" fill="#474F5A"/>
<path id="Subtract_3" d="M745.333 655.904C746.806 655.904 748 657.098 748 658.57L748 679.904C748 681.377 746.806 682.57 745.333 682.57L726.667 682.57C725.194 682.57 724 681.377 724 679.904L724 658.57C724 657.098 725.194 655.904 726.667 655.904L745.333 655.904ZM728 675.904C727.264 675.904 726.667 676.501 726.667 677.237L726.667 679.904L745.333 679.904L745.333 675.904L728 675.904ZM733.333 669.904C732.597 669.904 732 670.501 732 671.237L732 673.904L745.333 673.904L745.333 669.904L733.333 669.904ZM738.667 663.904C737.931 663.904 737.333 664.501 737.333 665.237L737.333 667.904L745.333 667.904L745.333 663.904L738.667 663.904Z" fill="white"/>
</g>
<g id="map_elevator" clip-path="url(#clip3_1145_29510)">
<rect id="Rectangle 240653084_4" x="782" y="679" width="32" height="32" rx="4" fill="#474F5A"/>
<path id="Subtract_4" d="M808.667 681.668C810.139 681.668 811.333 682.861 811.333 684.334L811.333 705.668C811.333 707.14 810.139 708.334 808.667 708.334L787.333 708.334C785.861 708.334 784.667 707.14 784.667 705.668L784.667 684.334C784.667 682.861 785.861 681.668 787.333 681.668L808.667 681.668ZM788.667 689.668L788.667 705.668L796.667 705.668L796.667 689.668L788.667 689.668ZM799.333 689.668L799.333 705.668L807.333 705.668L807.333 689.668L799.333 689.668ZM795.333 684.334C794.597 684.334 794 684.932 794 685.668C794 686.404 794.597 687.001 795.333 687.001L800.667 687.001C801.403 687.001 802 686.404 802 685.668C802 684.932 801.403 684.334 800.667 684.334L795.333 684.334Z" fill="white"/>
</g>
<g id="map_elevator_2" clip-path="url(#clip4_1145_29510)">
<rect id="Rectangle 240653084_5" x="782" y="625" width="32" height="32" rx="4" fill="#474F5A"/>
<path id="Subtract_5" d="M808.667 627.668C810.139 627.668 811.333 628.861 811.333 630.334L811.333 651.668C811.333 653.14 810.139 654.334 808.667 654.334L787.333 654.334C785.861 654.334 784.667 653.14 784.667 651.668L784.667 630.334C784.667 628.861 785.861 627.668 787.333 627.668L808.667 627.668ZM788.667 635.668L788.667 651.668L796.667 651.668L796.667 635.668L788.667 635.668ZM799.333 635.668L799.333 651.668L807.333 651.668L807.333 635.668L799.333 635.668ZM795.333 630.334C794.597 630.334 794 630.932 794 631.668C794 632.404 794.597 633.001 795.333 633.001L800.667 633.001C801.403 633.001 802 632.404 802 631.668C802 630.932 801.403 630.334 800.667 630.334L795.333 630.334Z" fill="white"/>
</g>
<g id="map_elevator_3" clip-path="url(#clip5_1145_29510)">
<rect id="Rectangle 240653084_6" x="1172" y="211" width="32" height="32" rx="4" fill="#474F5A"/>
<path id="Subtract_6" d="M1198.67 213.668C1200.14 213.668 1201.33 214.861 1201.33 216.334L1201.33 237.668C1201.33 239.14 1200.14 240.334 1198.67 240.334L1177.33 240.334C1175.86 240.334 1174.67 239.14 1174.67 237.668L1174.67 216.334C1174.67 214.861 1175.86 213.668 1177.33 213.668L1198.67 213.668ZM1178.67 221.668L1178.67 237.668L1186.67 237.668L1186.67 221.668L1178.67 221.668ZM1189.33 221.668L1189.33 237.668L1197.33 237.668L1197.33 221.668L1189.33 221.668ZM1185.33 216.334C1184.6 216.334 1184 216.932 1184 217.668C1184 218.404 1184.6 219.001 1185.33 219.001L1190.67 219.001C1191.4 219.001 1192 218.404 1192 217.668C1192 216.932 1191.4 216.334 1190.67 216.334L1185.33 216.334Z" fill="white"/>
</g>
<g id="door_22">
<path id="Intersect_43" d="M1344 362H1328C1328 370.837 1335.16 378 1344 378V362Z" fill="white"/>
<path id="Intersect_44" d="M1344 362V378C1335.16 378 1328 370.837 1328 362" stroke="#1D2056"/>
<rect id="Rectangle 240653104_22" width="15" height="0.5" transform="matrix(1 0 0 -1 1328.5 362)" fill="white"/>
<rect id="Rectangle 240653105_22" width="1" height="0.5" transform="matrix(1 0 0 -1 1327.5 362)" fill="#1D2056"/>
<rect id="Rectangle 240653106_22" width="1" height="0.5" transform="matrix(1 0 0 -1 1343.5 362)" fill="#1D2056"/>
</g>
<rect id="Rectangle 240653346" x="822" y="232" width="2" height="87" fill="#EBEBF5"/>
</g>
</g>
<defs>
<clipPath id="clip0_1145_29510">
<rect width="32" height="32" fill="white" transform="translate(1230 238.236)"/>
</clipPath>
<clipPath id="clip1_1145_29510">
<rect width="32" height="32" fill="white" transform="translate(1308 646)"/>
</clipPath>
<clipPath id="clip2_1145_29510">
<rect width="32" height="32" fill="white" transform="translate(720 653.236)"/>
</clipPath>
<clipPath id="clip3_1145_29510">
<rect width="32" height="32" fill="white" transform="translate(782 679)"/>
</clipPath>
<clipPath id="clip4_1145_29510">
<rect width="32" height="32" fill="white" transform="translate(782 625)"/>
</clipPath>
<clipPath id="clip5_1145_29510">
<rect width="32" height="32" fill="white" transform="translate(1172 211)"/>
</clipPath>
</defs>
</svg>
