<svg width="1186" height="2503" viewBox="0 0 1186 2503" fill="none" xmlns="http://www.w3.org/2000/svg">
<g id="R_15">
<rect width="1186" height="2503" fill="#E8EDF3"/>
<g id="Visual">
<g id="Union">
<mask id="path-1-outside-1_908_29551" maskUnits="userSpaceOnUse" x="205" y="278.094" width="778" height="767" fill="black">
<rect fill="white" x="205" y="278.094" width="778" height="767"/>
<path d="M737.316 448.999H979.002V827.999H737.316V831.252H739.313V1041.25H301.878V880.252H327.845V840.094H208V281.094H737.316V448.999Z"/>
</mask>
<path d="M737.316 448.999H979.002V827.999H737.316V831.252H739.313V1041.25H301.878V880.252H327.845V840.094H208V281.094H737.316V448.999Z" fill="white"/>
<path d="M737.316 448.999H734.316V451.999H737.316V448.999ZM979.002 448.999H982.002V445.999H979.002V448.999ZM979.002 827.999V830.999H982.002V827.999H979.002ZM737.316 827.999V824.999H734.316V827.999H737.316ZM737.316 831.252H734.316V834.252H737.316V831.252ZM739.313 831.252H742.313V828.252H739.313V831.252ZM739.313 1041.25V1044.25H742.313V1041.25H739.313ZM301.878 1041.25H298.878V1044.25H301.878V1041.25ZM301.878 880.252V877.252H298.878V880.252H301.878ZM327.845 880.252V883.252H330.845V880.252H327.845ZM327.845 840.094H330.845V837.094H327.845V840.094ZM208 840.094H205V843.094H208V840.094ZM208 281.094V278.094H205V281.094H208ZM737.316 281.094H740.316V278.094H737.316V281.094ZM737.316 448.999V451.999H979.002V448.999V445.999H737.316V448.999ZM979.002 448.999H976.002V827.999H979.002H982.002V448.999H979.002ZM979.002 827.999V824.999H737.316V827.999V830.999H979.002V827.999ZM737.316 827.999H734.316V831.252H737.316H740.316V827.999H737.316ZM737.316 831.252V834.252H739.313V831.252V828.252H737.316V831.252ZM739.313 831.252H736.313V1041.25H739.313H742.313V831.252H739.313ZM739.313 1041.25V1038.25H301.878V1041.25V1044.25H739.313V1041.25ZM301.878 1041.25H304.878V880.252H301.878H298.878V1041.25H301.878ZM301.878 880.252V883.252H327.845V880.252V877.252H301.878V880.252ZM327.845 880.252H330.845V840.094H327.845H324.845V880.252H327.845ZM327.845 840.094V837.094H208V840.094V843.094H327.845V840.094ZM208 840.094H211V281.094H208H205V840.094H208ZM208 281.094V284.094H737.316V281.094V278.094H208V281.094ZM737.316 281.094H734.316V448.999H737.316H740.316V281.094H737.316Z" fill="#1D2056" mask="url(#path-1-outside-1_908_29551)"/>
</g>
<g id="Union_2">
<path d="M739 449H979.002V828H739V831.253H739.313V1041.25H301.878V880.253H327.845V840H208V281H739V449Z" fill="white"/>
<path d="M739 449H738V450H739V449ZM979.002 449H980.002V448H979.002V449ZM979.002 828V829H980.002V828H979.002ZM739 828V827H738V828H739ZM739 831.253H738V832.253H739V831.253ZM739.313 831.253H740.313V830.253H739.313V831.253ZM739.313 1041.25V1042.25H740.313V1041.25H739.313ZM301.878 1041.25H300.878V1042.25H301.878V1041.25ZM301.878 880.253V879.253H300.878V880.253H301.878ZM327.845 880.253V881.253H328.845V880.253H327.845ZM327.845 840H328.845V839H327.845V840ZM208 840H207V841H208V840ZM208 281V280H207V281H208ZM739 281H740V280H739V281ZM739 449V450H979.002V449V448H739V449ZM979.002 449H978.002V828H979.002H980.002V449H979.002ZM979.002 828V827H739V828V829H979.002V828ZM739 828H738V831.253H739H740V828H739ZM739 831.253V832.253H739.313V831.253V830.253H739V831.253ZM739.313 831.253H738.313V1041.25H739.313H740.313V831.253H739.313ZM739.313 1041.25V1040.25H301.878V1041.25V1042.25H739.313V1041.25ZM301.878 1041.25H302.878V880.253H301.878H300.878V1041.25H301.878ZM301.878 880.253V881.253H327.845V880.253V879.253H301.878V880.253ZM327.845 880.253H328.845V840H327.845H326.845V880.253H327.845ZM327.845 840V839H208V840V841H327.845V840ZM208 840H209V281H208H207V840H208ZM208 281V282H739V281V280H208V281ZM739 281H738V449H739H740V281H739Z" fill="#1D2056"/>
</g>
<rect id="Rectangle 240653120" x="665" y="830.094" width="4" height="32" transform="rotate(-90 665 830.094)" fill="white"/>
<g id="Frame 2087332191">
<g id="stair">
<rect id="Rectangle 240653086" x="619" y="529" width="6" height="40" transform="rotate(-180 619 529)" fill="white" stroke="#1D2056"/>
</g>
<g id="stair_2">
<rect id="Rectangle 240653086_2" x="613" y="529" width="6" height="40" transform="rotate(-180 613 529)" fill="white" stroke="#1D2056"/>
</g>
<g id="stair_3">
<rect id="Rectangle 240653086_3" x="607" y="529" width="6" height="40" transform="rotate(-180 607 529)" fill="white" stroke="#1D2056"/>
</g>
<g id="stair_4">
<rect id="Rectangle 240653086_4" x="601" y="529" width="6" height="40" transform="rotate(-180 601 529)" fill="white" stroke="#1D2056"/>
</g>
<g id="stair_5">
<rect id="Rectangle 240653086_5" x="595" y="529" width="6" height="40" transform="rotate(-180 595 529)" fill="white" stroke="#1D2056"/>
</g>
<g id="stair_6">
<rect id="Rectangle 240653086_6" x="589" y="529" width="6" height="40" transform="rotate(-180 589 529)" fill="white" stroke="#1D2056"/>
</g>
<g id="stair_7">
<rect id="Rectangle 240653086_7" x="583" y="529" width="6" height="40" transform="rotate(-180 583 529)" fill="white" stroke="#1D2056"/>
</g>
<g id="stair_8">
<rect id="Rectangle 240653086_8" x="577" y="529" width="6" height="40" transform="rotate(-180 577 529)" fill="white" stroke="#1D2056"/>
</g>
<g id="stair_9">
<rect id="Rectangle 240653086_9" x="571" y="529" width="6" height="40" transform="rotate(-180 571 529)" fill="white" stroke="#1D2056"/>
</g>
</g>
<g id="Frame 2087332193">
<g id="stair_10">
<rect id="Rectangle 240653086_10" x="570" y="827" width="6" height="41" transform="rotate(-180 570 827)" fill="white" stroke="#1D2056"/>
</g>
<g id="stair_11">
<rect id="Rectangle 240653086_11" x="564" y="827" width="6" height="41" transform="rotate(-180 564 827)" fill="white" stroke="#1D2056"/>
</g>
<g id="stair_12">
<rect id="Rectangle 240653086_12" x="558" y="827" width="6" height="41" transform="rotate(-180 558 827)" fill="white" stroke="#1D2056"/>
</g>
<g id="stair_13">
<rect id="Rectangle 240653086_13" x="552" y="827" width="6" height="41" transform="rotate(-180 552 827)" fill="white" stroke="#1D2056"/>
</g>
<g id="stair_14">
<rect id="Rectangle 240653086_14" x="546" y="827" width="6" height="41" transform="rotate(-180 546 827)" fill="white" stroke="#1D2056"/>
</g>
<g id="stair_15">
<rect id="Rectangle 240653086_15" x="540" y="827" width="6" height="41" transform="rotate(-180 540 827)" fill="white" stroke="#1D2056"/>
</g>
<g id="stair_16">
<rect id="Rectangle 240653086_16" x="534" y="827" width="6" height="41" transform="rotate(-180 534 827)" fill="white" stroke="#1D2056"/>
</g>
<g id="stair_17">
<rect id="Rectangle 240653086_17" x="528" y="827" width="6" height="41" transform="rotate(-180 528 827)" fill="white" stroke="#1D2056"/>
</g>
<g id="stair_18">
<rect id="Rectangle 240653086_18" x="522" y="827" width="6" height="41" transform="rotate(-180 522 827)" fill="white" stroke="#1D2056"/>
</g>
</g>
<g id="Frame 2087332194">
<g id="stair_19">
<rect id="Rectangle 240653086_19" x="570" y="786.352" width="6" height="40" transform="rotate(-180 570 786.352)" fill="white" stroke="#1D2056"/>
</g>
<g id="stair_20">
<rect id="Rectangle 240653086_20" x="564" y="786.352" width="6" height="40" transform="rotate(-180 564 786.352)" fill="white" stroke="#1D2056"/>
</g>
<g id="stair_21">
<rect id="Rectangle 240653086_21" x="558" y="786.352" width="6" height="40" transform="rotate(-180 558 786.352)" fill="white" stroke="#1D2056"/>
</g>
<g id="stair_22">
<rect id="Rectangle 240653086_22" x="552" y="786.352" width="6" height="40" transform="rotate(-180 552 786.352)" fill="white" stroke="#1D2056"/>
</g>
<g id="stair_23">
<rect id="Rectangle 240653086_23" x="546" y="786.352" width="6" height="40" transform="rotate(-180 546 786.352)" fill="white" stroke="#1D2056"/>
</g>
<g id="stair_24">
<rect id="Rectangle 240653086_24" x="540" y="786.352" width="6" height="40" transform="rotate(-180 540 786.352)" fill="white" stroke="#1D2056"/>
</g>
<g id="stair_25">
<rect id="Rectangle 240653086_25" x="534" y="786.352" width="6" height="40" transform="rotate(-180 534 786.352)" fill="white" stroke="#1D2056"/>
</g>
<g id="stair_26">
<rect id="Rectangle 240653086_26" x="528" y="786.352" width="6" height="40" transform="rotate(-180 528 786.352)" fill="white" stroke="#1D2056"/>
</g>
<g id="stair_27">
<rect id="Rectangle 240653086_27" x="522" y="786.352" width="6" height="40" transform="rotate(-180 522 786.352)" fill="white" stroke="#1D2056"/>
</g>
</g>
<g id="Frame 2087332192">
<g id="stair_28">
<rect id="Rectangle 240653086_28" x="619" y="489" width="6" height="40" transform="rotate(-180 619 489)" fill="white" stroke="#1D2056"/>
</g>
<g id="stair_29">
<rect id="Rectangle 240653086_29" x="613" y="489" width="6" height="40" transform="rotate(-180 613 489)" fill="white" stroke="#1D2056"/>
</g>
<g id="stair_30">
<rect id="Rectangle 240653086_30" x="607" y="489" width="6" height="40" transform="rotate(-180 607 489)" fill="white" stroke="#1D2056"/>
</g>
<g id="stair_31">
<rect id="Rectangle 240653086_31" x="601" y="489" width="6" height="40" transform="rotate(-180 601 489)" fill="white" stroke="#1D2056"/>
</g>
<g id="stair_32">
<rect id="Rectangle 240653086_32" x="595" y="489" width="6" height="40" transform="rotate(-180 595 489)" fill="white" stroke="#1D2056"/>
</g>
<g id="stair_33">
<rect id="Rectangle 240653086_33" x="589" y="489" width="6" height="40" transform="rotate(-180 589 489)" fill="white" stroke="#1D2056"/>
</g>
<g id="stair_34">
<rect id="Rectangle 240653086_34" x="583" y="489" width="6" height="40" transform="rotate(-180 583 489)" fill="white" stroke="#1D2056"/>
</g>
<g id="stair_35">
<rect id="Rectangle 240653086_35" x="577" y="489" width="6" height="40" transform="rotate(-180 577 489)" fill="white" stroke="#1D2056"/>
</g>
<g id="stair_36">
<rect id="Rectangle 240653086_36" x="571" y="489" width="6" height="40" transform="rotate(-180 571 489)" fill="white" stroke="#1D2056"/>
</g>
</g>
<g id="room">
<rect x="209" y="282" width="196" height="286" fill="#EBEBF5"/>
<rect x="209" y="282" width="196" height="286" stroke="#1D2056"/>
<path id="106" d="M295.621 431H293.574V421.672H293.511L290.863 423.367V421.5L293.667 419.688H295.621V431ZM302.066 431.156C301.327 431.156 300.655 431.018 300.051 430.742C299.452 430.461 298.98 430.076 298.637 429.586C298.293 429.096 298.108 428.544 298.082 427.93H300.058C300.09 428.232 300.196 428.503 300.379 428.742C300.561 428.982 300.801 429.169 301.097 429.305C301.394 429.44 301.717 429.508 302.066 429.508C302.483 429.508 302.855 429.414 303.183 429.227C303.512 429.039 303.769 428.781 303.957 428.453C304.144 428.125 304.238 427.753 304.238 427.336C304.238 426.909 304.142 426.529 303.949 426.195C303.762 425.862 303.499 425.602 303.16 425.414C302.821 425.221 302.436 425.125 302.004 425.125C301.556 425.12 301.176 425.195 300.863 425.352C300.551 425.508 300.306 425.755 300.129 426.094H298.246L298.926 419.688H305.605V421.391H300.605L300.262 424.398H300.355C300.584 424.143 300.894 423.935 301.285 423.773C301.681 423.612 302.105 423.531 302.558 423.531C303.251 423.531 303.876 423.693 304.433 424.016C304.991 424.333 305.426 424.779 305.738 425.352C306.056 425.919 306.215 426.562 306.215 427.281C306.215 428.026 306.038 428.693 305.683 429.281C305.329 429.87 304.837 430.331 304.207 430.664C303.582 430.992 302.868 431.156 302.066 431.156ZM312.199 431H310.153V421.672H310.09L307.442 423.367V421.5L310.246 419.688H312.199V431ZM318.801 431.156C317.895 431.156 317.116 430.93 316.465 430.477C315.819 430.023 315.322 429.362 314.973 428.492C314.629 427.617 314.458 426.568 314.458 425.344C314.458 424.12 314.629 423.073 314.973 422.203C315.322 421.333 315.822 420.672 316.473 420.219C317.124 419.76 317.9 419.531 318.801 419.531C319.702 419.531 320.478 419.76 321.129 420.219C321.786 420.672 322.286 421.336 322.629 422.211C322.973 423.081 323.145 424.125 323.145 425.344C323.145 426.573 322.973 427.622 322.629 428.492C322.291 429.362 321.793 430.023 321.137 430.477C320.486 430.93 319.708 431.156 318.801 431.156ZM318.801 429.445C319.275 429.445 319.684 429.292 320.028 428.984C320.372 428.672 320.635 428.211 320.817 427.602C321.004 426.987 321.096 426.234 321.09 425.344C321.09 424.458 320.997 423.708 320.809 423.094C320.627 422.474 320.364 422.008 320.02 421.695C319.681 421.378 319.275 421.219 318.801 421.219C318.327 421.219 317.918 421.378 317.575 421.695C317.236 422.008 316.973 422.474 316.786 423.094C316.598 423.708 316.504 424.458 316.504 425.344C316.504 426.234 316.596 426.987 316.778 427.602C316.965 428.211 317.231 428.672 317.575 428.984C317.918 429.292 318.327 429.445 318.801 429.445Z" fill="black"/>
</g>
<g id="room_2">
<rect x="209" y="568" width="196" height="125" fill="#EBEBF5"/>
<rect x="209" y="568" width="196" height="125" stroke="#1D2056"/>
<path id="106_2" d="M294.23 636.5H292.183V627.172H292.121L289.472 628.867V627L292.277 625.188H294.23V636.5ZM300.676 636.656C299.936 636.656 299.264 636.518 298.66 636.242C298.061 635.961 297.59 635.576 297.246 635.086C296.902 634.596 296.717 634.044 296.691 633.43H298.668C298.699 633.732 298.806 634.003 298.988 634.242C299.17 634.482 299.41 634.669 299.707 634.805C300.004 634.94 300.327 635.008 300.676 635.008C301.092 635.008 301.465 634.914 301.793 634.727C302.121 634.539 302.379 634.281 302.566 633.953C302.754 633.625 302.847 633.253 302.847 632.836C302.847 632.409 302.751 632.029 302.558 631.695C302.371 631.362 302.108 631.102 301.769 630.914C301.431 630.721 301.045 630.625 300.613 630.625C300.165 630.62 299.785 630.695 299.472 630.852C299.16 631.008 298.915 631.255 298.738 631.594H296.855L297.535 625.188H304.215V626.891H299.215L298.871 629.898H298.965C299.194 629.643 299.504 629.435 299.894 629.273C300.29 629.112 300.715 629.031 301.168 629.031C301.861 629.031 302.486 629.193 303.043 629.516C303.6 629.833 304.035 630.279 304.347 630.852C304.665 631.419 304.824 632.062 304.824 632.781C304.824 633.526 304.647 634.193 304.293 634.781C303.939 635.37 303.446 635.831 302.816 636.164C302.191 636.492 301.478 636.656 300.676 636.656ZM310.387 636.656C309.481 636.656 308.702 636.43 308.051 635.977C307.405 635.523 306.908 634.862 306.559 633.992C306.215 633.117 306.043 632.068 306.043 630.844C306.043 629.62 306.215 628.573 306.559 627.703C306.908 626.833 307.408 626.172 308.059 625.719C308.71 625.26 309.486 625.031 310.387 625.031C311.288 625.031 312.064 625.26 312.715 625.719C313.371 626.172 313.871 626.836 314.215 627.711C314.559 628.581 314.731 629.625 314.731 630.844C314.731 632.073 314.559 633.122 314.215 633.992C313.876 634.862 313.379 635.523 312.723 635.977C312.072 636.43 311.293 636.656 310.387 636.656ZM310.387 634.945C310.861 634.945 311.27 634.792 311.613 634.484C311.957 634.172 312.22 633.711 312.403 633.102C312.59 632.487 312.681 631.734 312.676 630.844C312.676 629.958 312.582 629.208 312.395 628.594C312.212 627.974 311.949 627.508 311.606 627.195C311.267 626.878 310.861 626.719 310.387 626.719C309.913 626.719 309.504 626.878 309.16 627.195C308.822 627.508 308.559 627.974 308.371 628.594C308.184 629.208 308.09 629.958 308.09 630.844C308.09 631.734 308.181 632.487 308.363 633.102C308.551 633.711 308.817 634.172 309.16 634.484C309.504 634.792 309.913 634.945 310.387 634.945ZM320.137 625.031C320.939 625.031 321.668 625.208 322.325 625.562C322.986 625.917 323.52 626.5 323.926 627.312C324.338 628.125 324.543 629.188 324.543 630.5C324.549 631.781 324.366 632.885 323.997 633.812C323.632 634.734 323.106 635.44 322.418 635.93C321.736 636.414 320.934 636.656 320.012 636.656C319.304 636.656 318.666 636.518 318.098 636.242C317.53 635.961 317.072 635.578 316.723 635.094C316.374 634.604 316.158 634.049 316.075 633.43H318.075C318.148 633.727 318.27 633.984 318.442 634.203C318.619 634.422 318.84 634.591 319.106 634.711C319.372 634.831 319.674 634.891 320.012 634.891C320.554 634.891 321.015 634.737 321.395 634.43C321.78 634.122 322.072 633.68 322.27 633.102C322.473 632.518 322.575 631.826 322.575 631.023H322.458C322.265 631.341 322.023 631.617 321.731 631.852C321.439 632.086 321.106 632.266 320.731 632.391C320.361 632.516 319.971 632.578 319.559 632.578C318.892 632.578 318.286 632.422 317.739 632.109C317.192 631.792 316.76 631.354 316.442 630.797C316.124 630.234 315.965 629.607 315.965 628.914C315.965 628.174 316.137 627.51 316.481 626.922C316.83 626.328 317.319 625.865 317.95 625.531C318.585 625.193 319.314 625.026 320.137 625.031ZM320.137 626.672C319.731 626.672 319.359 626.771 319.02 626.969C318.687 627.161 318.424 627.424 318.231 627.758C318.038 628.091 317.942 628.458 317.942 628.859C317.947 629.26 318.043 629.628 318.231 629.961C318.418 630.289 318.676 630.549 319.004 630.742C319.333 630.935 319.702 631.031 320.114 631.031C320.525 631.031 320.9 630.93 321.239 630.727C321.577 630.523 321.846 630.255 322.043 629.922C322.247 629.583 322.346 629.224 322.34 628.844C322.34 628.453 322.244 628.094 322.051 627.766C321.859 627.432 321.596 627.167 321.262 626.969C320.934 626.771 320.559 626.672 320.137 626.672Z" fill="black"/>
</g>
<g id="room_3">
<rect x="209" y="693" width="196" height="146" fill="#EBEBF5"/>
<rect x="209" y="693" width="196" height="146" stroke="#1D2056"/>
<path id="106_3" d="M294.246 772H292.199V762.672H292.136L289.488 764.367V762.5L292.292 760.688H294.246V772ZM300.691 772.156C299.952 772.156 299.28 772.018 298.676 771.742C298.077 771.461 297.605 771.076 297.262 770.586C296.918 770.096 296.733 769.544 296.707 768.93H298.683C298.715 769.232 298.821 769.503 299.004 769.742C299.186 769.982 299.426 770.169 299.722 770.305C300.019 770.44 300.342 770.508 300.691 770.508C301.108 770.508 301.48 770.414 301.808 770.227C302.137 770.039 302.394 769.781 302.582 769.453C302.769 769.125 302.863 768.753 302.863 768.336C302.863 767.909 302.767 767.529 302.574 767.195C302.387 766.862 302.124 766.602 301.785 766.414C301.446 766.221 301.061 766.125 300.629 766.125C300.181 766.12 299.801 766.195 299.488 766.352C299.176 766.508 298.931 766.755 298.754 767.094H296.871L297.551 760.688H304.23V762.391H299.23L298.887 765.398H298.98C299.209 765.143 299.519 764.935 299.91 764.773C300.306 764.612 300.73 764.531 301.183 764.531C301.876 764.531 302.501 764.693 303.058 765.016C303.616 765.333 304.051 765.779 304.363 766.352C304.681 766.919 304.84 767.562 304.84 768.281C304.84 769.026 304.663 769.693 304.308 770.281C303.954 770.87 303.462 771.331 302.832 771.664C302.207 771.992 301.493 772.156 300.691 772.156ZM310.403 772.156C309.496 772.156 308.718 771.93 308.067 771.477C307.421 771.023 306.923 770.362 306.574 769.492C306.231 768.617 306.059 767.568 306.059 766.344C306.059 765.12 306.231 764.073 306.574 763.203C306.923 762.333 307.423 761.672 308.074 761.219C308.725 760.76 309.501 760.531 310.403 760.531C311.304 760.531 312.08 760.76 312.731 761.219C313.387 761.672 313.887 762.336 314.231 763.211C314.574 764.081 314.746 765.125 314.746 766.344C314.746 767.573 314.574 768.622 314.231 769.492C313.892 770.362 313.395 771.023 312.738 771.477C312.087 771.93 311.309 772.156 310.403 772.156ZM310.403 770.445C310.876 770.445 311.285 770.292 311.629 769.984C311.973 769.672 312.236 769.211 312.418 768.602C312.606 767.987 312.697 767.234 312.692 766.344C312.692 765.458 312.598 764.708 312.41 764.094C312.228 763.474 311.965 763.008 311.621 762.695C311.283 762.378 310.876 762.219 310.403 762.219C309.929 762.219 309.52 762.378 309.176 762.695C308.837 763.008 308.574 763.474 308.387 764.094C308.199 764.708 308.106 765.458 308.106 766.344C308.106 767.234 308.197 767.987 308.379 768.602C308.567 769.211 308.832 769.672 309.176 769.984C309.52 770.292 309.929 770.445 310.403 770.445ZM320.239 772.156C319.411 772.156 318.671 772.018 318.02 771.742C317.369 771.466 316.859 771.086 316.489 770.602C316.124 770.117 315.942 769.573 315.942 768.969C315.942 768.5 316.046 768.062 316.254 767.656C316.468 767.25 316.76 766.914 317.129 766.648C317.504 766.383 317.916 766.216 318.364 766.148V766.078C317.978 765.99 317.635 765.828 317.333 765.594C317.03 765.354 316.793 765.057 316.622 764.703C316.455 764.349 316.372 763.969 316.372 763.562C316.372 762.984 316.538 762.466 316.872 762.008C317.21 761.544 317.671 761.182 318.254 760.922C318.843 760.661 319.504 760.531 320.239 760.531C320.968 760.531 321.627 760.661 322.215 760.922C322.809 761.182 323.273 761.544 323.606 762.008C323.939 762.466 324.106 762.984 324.106 763.562C324.106 763.969 324.02 764.349 323.848 764.703C323.676 765.057 323.439 765.354 323.137 765.594C322.835 765.828 322.491 765.99 322.106 766.078V766.148C322.554 766.216 322.963 766.383 323.333 766.648C323.702 766.914 323.994 767.25 324.208 767.656C324.426 768.062 324.536 768.5 324.536 768.969C324.536 769.573 324.351 770.117 323.981 770.602C323.616 771.086 323.106 771.466 322.45 771.742C321.799 772.018 321.062 772.156 320.239 772.156ZM320.239 770.547C320.676 770.547 321.059 770.474 321.387 770.328C321.721 770.177 321.978 769.969 322.161 769.703C322.343 769.438 322.434 769.133 322.434 768.789C322.434 768.435 322.34 768.117 322.153 767.836C321.965 767.549 321.702 767.328 321.364 767.172C321.03 767.01 320.655 766.93 320.239 766.93C319.822 766.93 319.444 767.01 319.106 767.172C318.767 767.328 318.504 767.549 318.317 767.836C318.129 768.117 318.038 768.435 318.043 768.789C318.038 769.133 318.127 769.438 318.309 769.703C318.491 769.969 318.749 770.177 319.083 770.328C319.416 770.474 319.801 770.547 320.239 770.547ZM320.239 765.422C320.598 765.422 320.921 765.352 321.208 765.211C321.494 765.065 321.718 764.867 321.879 764.617C322.041 764.367 322.122 764.081 322.122 763.758C322.122 763.44 322.041 763.156 321.879 762.906C321.723 762.656 321.502 762.464 321.215 762.328C320.929 762.193 320.603 762.125 320.239 762.125C319.869 762.125 319.541 762.193 319.254 762.328C318.968 762.464 318.747 762.656 318.59 762.906C318.434 763.156 318.356 763.44 318.356 763.758C318.356 764.081 318.437 764.367 318.598 764.617C318.76 764.867 318.981 765.065 319.262 765.211C319.549 765.352 319.874 765.422 320.239 765.422Z" fill="black"/>
</g>
<g id="room_4">
<rect x="303" y="919" width="149" height="121" fill="#EBEBF5"/>
<rect x="303" y="919" width="149" height="121" stroke="#1D2056"/>
<path id="106_4" d="M364.621 985.5H362.574V976.172H362.511L359.863 977.867V976L362.667 974.188H364.621V985.5ZM371.066 985.656C370.327 985.656 369.655 985.518 369.051 985.242C368.452 984.961 367.98 984.576 367.637 984.086C367.293 983.596 367.108 983.044 367.082 982.43H369.058C369.09 982.732 369.196 983.003 369.379 983.242C369.561 983.482 369.801 983.669 370.097 983.805C370.394 983.94 370.717 984.008 371.066 984.008C371.483 984.008 371.855 983.914 372.183 983.727C372.512 983.539 372.769 983.281 372.957 982.953C373.144 982.625 373.238 982.253 373.238 981.836C373.238 981.409 373.142 981.029 372.949 980.695C372.762 980.362 372.499 980.102 372.16 979.914C371.821 979.721 371.436 979.625 371.004 979.625C370.556 979.62 370.176 979.695 369.863 979.852C369.551 980.008 369.306 980.255 369.129 980.594H367.246L367.926 974.188H374.605V975.891H369.605L369.262 978.898H369.355C369.584 978.643 369.894 978.435 370.285 978.273C370.681 978.112 371.105 978.031 371.558 978.031C372.251 978.031 372.876 978.193 373.433 978.516C373.991 978.833 374.426 979.279 374.738 979.852C375.056 980.419 375.215 981.062 375.215 981.781C375.215 982.526 375.038 983.193 374.683 983.781C374.329 984.37 373.837 984.831 373.207 985.164C372.582 985.492 371.868 985.656 371.066 985.656ZM380.778 985.656C379.871 985.656 379.093 985.43 378.442 984.977C377.796 984.523 377.298 983.862 376.949 982.992C376.606 982.117 376.434 981.068 376.434 979.844C376.434 978.62 376.606 977.573 376.949 976.703C377.298 975.833 377.798 975.172 378.449 974.719C379.1 974.26 379.876 974.031 380.778 974.031C381.679 974.031 382.455 974.26 383.106 974.719C383.762 975.172 384.262 975.836 384.606 976.711C384.949 977.581 385.121 978.625 385.121 979.844C385.121 981.073 384.949 982.122 384.606 982.992C384.267 983.862 383.77 984.523 383.113 984.977C382.462 985.43 381.684 985.656 380.778 985.656ZM380.778 983.945C381.251 983.945 381.66 983.792 382.004 983.484C382.348 983.172 382.611 982.711 382.793 982.102C382.981 981.487 383.072 980.734 383.067 979.844C383.067 978.958 382.973 978.208 382.785 977.594C382.603 976.974 382.34 976.508 381.996 976.195C381.658 975.878 381.251 975.719 380.778 975.719C380.304 975.719 379.895 975.878 379.551 976.195C379.212 976.508 378.949 976.974 378.762 977.594C378.574 978.208 378.481 978.958 378.481 979.844C378.481 980.734 378.572 981.487 378.754 982.102C378.942 982.711 379.207 983.172 379.551 983.484C379.895 983.792 380.304 983.945 380.778 983.945ZM386.293 981.773L391.184 974.188H392.528V976.5H391.692L388.379 981.633V981.727H395.208V983.391H386.293V981.773ZM391.786 982.906L391.809 982.172V974.188H393.731V985.5H391.786V982.906Z" fill="black"/>
</g>
<g id="room_5">
<rect x="452" y="919.094" width="64" height="121" fill="#EBEBF5"/>
<rect x="452" y="919.094" width="64" height="121" stroke="#1D2056"/>
<path id="106_5" d="M471.238 985.594H469.191V976.266H469.128L466.48 977.961V976.094L469.285 974.281H471.238V985.594ZM477.683 985.75C476.944 985.75 476.272 985.612 475.668 985.336C475.069 985.055 474.597 984.669 474.254 984.18C473.91 983.69 473.725 983.138 473.699 982.523H475.676C475.707 982.826 475.814 983.096 475.996 983.336C476.178 983.576 476.418 983.763 476.715 983.898C477.012 984.034 477.334 984.102 477.683 984.102C478.1 984.102 478.472 984.008 478.801 983.82C479.129 983.633 479.387 983.375 479.574 983.047C479.762 982.719 479.855 982.346 479.855 981.93C479.855 981.503 479.759 981.122 479.566 980.789C479.379 980.456 479.116 980.195 478.777 980.008C478.439 979.815 478.053 979.719 477.621 979.719C477.173 979.714 476.793 979.789 476.48 979.945C476.168 980.102 475.923 980.349 475.746 980.688H473.863L474.543 974.281H481.222V975.984H476.222L475.879 978.992H475.972C476.202 978.737 476.512 978.529 476.902 978.367C477.298 978.206 477.722 978.125 478.176 978.125C478.868 978.125 479.493 978.286 480.051 978.609C480.608 978.927 481.043 979.372 481.355 979.945C481.673 980.513 481.832 981.156 481.832 981.875C481.832 982.62 481.655 983.286 481.301 983.875C480.946 984.464 480.454 984.924 479.824 985.258C479.199 985.586 478.486 985.75 477.683 985.75ZM487.395 985.75C486.488 985.75 485.71 985.523 485.059 985.07C484.413 984.617 483.916 983.956 483.567 983.086C483.223 982.211 483.051 981.161 483.051 979.938C483.051 978.714 483.223 977.667 483.567 976.797C483.916 975.927 484.416 975.266 485.067 974.812C485.718 974.354 486.494 974.125 487.395 974.125C488.296 974.125 489.072 974.354 489.723 974.812C490.379 975.266 490.879 975.93 491.223 976.805C491.567 977.674 491.738 978.719 491.738 979.938C491.738 981.167 491.567 982.216 491.223 983.086C490.884 983.956 490.387 984.617 489.731 985.07C489.08 985.523 488.301 985.75 487.395 985.75ZM487.395 984.039C487.869 984.039 488.278 983.885 488.621 983.578C488.965 983.266 489.228 982.805 489.41 982.195C489.598 981.581 489.689 980.828 489.684 979.938C489.684 979.052 489.59 978.302 489.403 977.688C489.22 977.068 488.957 976.602 488.613 976.289C488.275 975.971 487.869 975.812 487.395 975.812C486.921 975.812 486.512 975.971 486.168 976.289C485.83 976.602 485.567 977.068 485.379 977.688C485.192 978.302 485.098 979.052 485.098 979.938C485.098 980.828 485.189 981.581 485.371 982.195C485.559 982.805 485.824 983.266 486.168 983.578C486.512 983.885 486.921 984.039 487.395 984.039ZM497.231 985.75C496.434 985.75 495.721 985.615 495.09 985.344C494.46 985.073 493.965 984.693 493.606 984.203C493.252 983.708 493.064 983.148 493.043 982.523H495.098C495.119 982.815 495.223 983.076 495.411 983.305C495.598 983.534 495.851 983.714 496.168 983.844C496.486 983.969 496.838 984.031 497.223 984.031C497.635 984.031 498.004 983.961 498.333 983.82C498.666 983.674 498.924 983.477 499.106 983.227C499.288 982.971 499.377 982.68 499.372 982.352C499.377 982.003 499.286 981.698 499.098 981.438C498.916 981.172 498.645 980.966 498.286 980.82C497.931 980.669 497.512 980.594 497.028 980.594H496.02V979.023H497.028C497.429 979.023 497.783 978.956 498.09 978.82C498.403 978.68 498.642 978.484 498.809 978.234C498.981 977.984 499.067 977.698 499.067 977.375C499.067 977.057 498.991 976.779 498.84 976.539C498.694 976.294 498.484 976.107 498.208 975.977C497.937 975.841 497.619 975.773 497.254 975.773C496.9 975.773 496.569 975.839 496.262 975.969C495.96 976.094 495.715 976.273 495.528 976.508C495.346 976.737 495.247 977.01 495.231 977.328H493.27C493.296 976.703 493.484 976.148 493.833 975.664C494.187 975.18 494.663 974.802 495.262 974.531C495.861 974.26 496.528 974.125 497.262 974.125C498.012 974.125 498.671 974.263 499.239 974.539C499.812 974.815 500.254 975.193 500.567 975.672C500.885 976.146 501.038 976.674 501.028 977.258C501.038 977.669 500.958 978.047 500.786 978.391C500.614 978.729 500.369 979.01 500.051 979.234C499.734 979.458 499.369 979.615 498.958 979.703V979.789C499.489 979.857 499.942 980.013 500.317 980.258C500.692 980.497 500.978 980.805 501.176 981.18C501.374 981.549 501.468 981.974 501.458 982.453C501.468 983.073 501.288 983.635 500.918 984.141C500.554 984.641 500.049 985.034 499.403 985.32C498.762 985.607 498.038 985.75 497.231 985.75Z" fill="black"/>
</g>
<g id="room_6">
<rect x="516" y="919.094" width="73" height="121" fill="#EBEBF5"/>
<rect x="516" y="919.094" width="73" height="121" stroke="#1D2056"/>
<path id="106_6" d="M539.972 985.594H537.925V976.266H537.863L535.214 977.961V976.094L538.019 974.281H539.972V985.594ZM546.418 985.75C545.678 985.75 545.006 985.612 544.402 985.336C543.803 985.055 543.332 984.669 542.988 984.18C542.644 983.69 542.459 983.138 542.433 982.523H544.41C544.441 982.826 544.548 983.096 544.73 983.336C544.913 983.576 545.152 983.763 545.449 983.898C545.746 984.034 546.069 984.102 546.418 984.102C546.834 984.102 547.207 984.008 547.535 983.82C547.863 983.633 548.121 983.375 548.308 983.047C548.496 982.719 548.59 982.346 548.59 981.93C548.59 981.503 548.493 981.122 548.301 980.789C548.113 980.456 547.85 980.195 547.512 980.008C547.173 979.815 546.788 979.719 546.355 979.719C545.907 979.714 545.527 979.789 545.215 979.945C544.902 980.102 544.657 980.349 544.48 980.688H542.597L543.277 974.281H549.957V975.984H544.957L544.613 978.992H544.707C544.936 978.737 545.246 978.529 545.637 978.367C546.032 978.206 546.457 978.125 546.91 978.125C547.603 978.125 548.228 978.286 548.785 978.609C549.342 978.927 549.777 979.372 550.09 979.945C550.407 980.513 550.566 981.156 550.566 981.875C550.566 982.62 550.389 983.286 550.035 983.875C549.681 984.464 549.189 984.924 548.558 985.258C547.933 985.586 547.22 985.75 546.418 985.75ZM556.129 985.75C555.223 985.75 554.444 985.523 553.793 985.07C553.147 984.617 552.65 983.956 552.301 983.086C551.957 982.211 551.785 981.161 551.785 979.938C551.785 978.714 551.957 977.667 552.301 976.797C552.65 975.927 553.15 975.266 553.801 974.812C554.452 974.354 555.228 974.125 556.129 974.125C557.03 974.125 557.806 974.354 558.457 974.812C559.113 975.266 559.613 975.93 559.957 976.805C560.301 977.674 560.473 978.719 560.473 979.938C560.473 981.167 560.301 982.216 559.957 983.086C559.619 983.956 559.121 984.617 558.465 985.07C557.814 985.523 557.035 985.75 556.129 985.75ZM556.129 984.039C556.603 984.039 557.012 983.885 557.356 983.578C557.699 983.266 557.962 982.805 558.145 982.195C558.332 981.581 558.423 980.828 558.418 979.938C558.418 979.052 558.324 978.302 558.137 977.688C557.955 977.068 557.692 976.602 557.348 976.289C557.009 975.971 556.603 975.812 556.129 975.812C555.655 975.812 555.246 975.971 554.903 976.289C554.564 976.602 554.301 977.068 554.113 977.688C553.926 978.302 553.832 979.052 553.832 979.938C553.832 980.828 553.923 981.581 554.106 982.195C554.293 982.805 554.559 983.266 554.903 983.578C555.246 983.885 555.655 984.039 556.129 984.039ZM561.856 984.117L565.848 980.273C566.286 979.836 566.624 979.479 566.864 979.203C567.103 978.922 567.286 978.643 567.411 978.367C567.536 978.091 567.598 977.799 567.598 977.492C567.598 977.154 567.512 976.854 567.34 976.594C567.168 976.333 566.937 976.133 566.645 975.992C566.353 975.846 566.02 975.773 565.645 975.773C565.27 975.773 564.937 975.852 564.645 976.008C564.353 976.159 564.129 976.378 563.973 976.664C563.817 976.951 563.739 977.281 563.739 977.656H561.809C561.809 976.953 561.973 976.336 562.301 975.805C562.629 975.268 563.085 974.854 563.668 974.562C564.257 974.271 564.926 974.125 565.676 974.125C566.437 974.125 567.109 974.266 567.692 974.547C568.275 974.828 568.728 975.216 569.051 975.711C569.379 976.206 569.543 976.768 569.543 977.398C569.543 977.836 569.46 978.258 569.293 978.664C569.127 979.07 568.84 979.518 568.434 980.008C568.033 980.497 567.458 981.096 566.708 981.805L564.692 983.805V983.891H569.715V985.594H561.864L561.856 984.117Z" fill="black"/>
</g>
<g id="room_7">
<rect x="452" y="827.094" width="158" height="50" fill="#EBEBF5"/>
<rect x="452" y="827.094" width="158" height="50" stroke="#1D2056"/>
<path id="106_7" d="M518.91 858.094H516.863V848.766H516.8L514.152 850.461V848.594L516.957 846.781H518.91V858.094ZM525.355 858.25C524.616 858.25 523.944 858.112 523.34 857.836C522.741 857.555 522.269 857.169 521.926 856.68C521.582 856.19 521.397 855.638 521.371 855.023H523.347C523.379 855.326 523.486 855.596 523.668 855.836C523.85 856.076 524.09 856.263 524.387 856.398C524.683 856.534 525.006 856.602 525.355 856.602C525.772 856.602 526.144 856.508 526.472 856.32C526.801 856.133 527.058 855.875 527.246 855.547C527.433 855.219 527.527 854.846 527.527 854.43C527.527 854.003 527.431 853.622 527.238 853.289C527.051 852.956 526.788 852.695 526.449 852.508C526.111 852.315 525.725 852.219 525.293 852.219C524.845 852.214 524.465 852.289 524.152 852.445C523.84 852.602 523.595 852.849 523.418 853.188H521.535L522.215 846.781H528.894V848.484H523.894L523.551 851.492H523.644C523.874 851.237 524.183 851.029 524.574 850.867C524.97 850.706 525.394 850.625 525.847 850.625C526.54 850.625 527.165 850.786 527.722 851.109C528.28 851.427 528.715 851.872 529.027 852.445C529.345 853.013 529.504 853.656 529.504 854.375C529.504 855.12 529.327 855.786 528.972 856.375C528.618 856.964 528.126 857.424 527.496 857.758C526.871 858.086 526.157 858.25 525.355 858.25ZM535.067 858.25C534.16 858.25 533.382 858.023 532.731 857.57C532.085 857.117 531.587 856.456 531.238 855.586C530.895 854.711 530.723 853.661 530.723 852.438C530.723 851.214 530.895 850.167 531.238 849.297C531.587 848.427 532.087 847.766 532.738 847.312C533.389 846.854 534.166 846.625 535.067 846.625C535.968 846.625 536.744 846.854 537.395 847.312C538.051 847.766 538.551 848.43 538.895 849.305C539.238 850.174 539.41 851.219 539.41 852.438C539.41 853.667 539.238 854.716 538.895 855.586C538.556 856.456 538.059 857.117 537.403 857.57C536.751 858.023 535.973 858.25 535.067 858.25ZM535.067 856.539C535.541 856.539 535.949 856.385 536.293 856.078C536.637 855.766 536.9 855.305 537.082 854.695C537.27 854.081 537.361 853.328 537.356 852.438C537.356 851.552 537.262 850.802 537.074 850.188C536.892 849.568 536.629 849.102 536.285 848.789C535.947 848.471 535.541 848.312 535.067 848.312C534.593 848.312 534.184 848.471 533.84 848.789C533.501 849.102 533.238 849.568 533.051 850.188C532.863 850.802 532.77 851.552 532.77 852.438C532.77 853.328 532.861 854.081 533.043 854.695C533.231 855.305 533.496 855.766 533.84 856.078C534.184 856.385 534.593 856.539 535.067 856.539ZM545.809 848.555V848.484H540.114V846.781H547.918V848.523L543.012 858.094H540.903L545.809 848.555Z" fill="black"/>
</g>
<g id="room_8">
<rect x="589" y="877" width="149" height="163" fill="#EBEBF5"/>
<rect x="589" y="877" width="149" height="163" stroke="#1D2056"/>
<path id="106_8" d="M652.121 964.5H650.074V955.172H650.011L647.363 956.867V955L650.167 953.188H652.121V964.5ZM658.566 964.656C657.827 964.656 657.155 964.518 656.551 964.242C655.952 963.961 655.48 963.576 655.137 963.086C654.793 962.596 654.608 962.044 654.582 961.43H656.558C656.59 961.732 656.696 962.003 656.879 962.242C657.061 962.482 657.301 962.669 657.597 962.805C657.894 962.94 658.217 963.008 658.566 963.008C658.983 963.008 659.355 962.914 659.683 962.727C660.012 962.539 660.269 962.281 660.457 961.953C660.644 961.625 660.738 961.253 660.738 960.836C660.738 960.409 660.642 960.029 660.449 959.695C660.262 959.362 659.999 959.102 659.66 958.914C659.321 958.721 658.936 958.625 658.504 958.625C658.056 958.62 657.676 958.695 657.363 958.852C657.051 959.008 656.806 959.255 656.629 959.594H654.746L655.426 953.188H662.105V954.891H657.105L656.762 957.898H656.855C657.084 957.643 657.394 957.435 657.785 957.273C658.181 957.112 658.605 957.031 659.058 957.031C659.751 957.031 660.376 957.193 660.933 957.516C661.491 957.833 661.926 958.279 662.238 958.852C662.556 959.419 662.715 960.062 662.715 960.781C662.715 961.526 662.538 962.193 662.183 962.781C661.829 963.37 661.337 963.831 660.707 964.164C660.082 964.492 659.368 964.656 658.566 964.656ZM668.278 964.656C667.371 964.656 666.593 964.43 665.942 963.977C665.296 963.523 664.798 962.862 664.449 961.992C664.106 961.117 663.934 960.068 663.934 958.844C663.934 957.62 664.106 956.573 664.449 955.703C664.798 954.833 665.298 954.172 665.949 953.719C666.6 953.26 667.376 953.031 668.278 953.031C669.179 953.031 669.955 953.26 670.606 953.719C671.262 954.172 671.762 954.836 672.106 955.711C672.449 956.581 672.621 957.625 672.621 958.844C672.621 960.073 672.449 961.122 672.106 961.992C671.767 962.862 671.27 963.523 670.613 963.977C669.962 964.43 669.184 964.656 668.278 964.656ZM668.278 962.945C668.751 962.945 669.16 962.792 669.504 962.484C669.848 962.172 670.111 961.711 670.293 961.102C670.481 960.487 670.572 959.734 670.567 958.844C670.567 957.958 670.473 957.208 670.285 956.594C670.103 955.974 669.84 955.508 669.496 955.195C669.158 954.878 668.751 954.719 668.278 954.719C667.804 954.719 667.395 954.878 667.051 955.195C666.712 955.508 666.449 955.974 666.262 956.594C666.074 957.208 665.981 957.958 665.981 958.844C665.981 959.734 666.072 960.487 666.254 961.102C666.442 961.711 666.707 962.172 667.051 962.484C667.395 962.792 667.804 962.945 668.278 962.945ZM678.598 964.5H676.551V955.172H676.489L673.84 956.867V955L676.645 953.188H678.598V964.5Z" fill="black"/>
</g>
<g id="room_9">
<rect x="738" y="449" width="241" height="205" fill="#EBEBF5"/>
<rect x="738" y="449" width="241" height="205" stroke="#1D2056"/>
<path id="106_9" d="M845.73 557.5H843.683V548.172H843.621L840.972 549.867V548L843.777 546.188H845.73V557.5ZM852.176 557.656C851.436 557.656 850.764 557.518 850.16 557.242C849.561 556.961 849.09 556.576 848.746 556.086C848.402 555.596 848.217 555.044 848.191 554.43H850.168C850.199 554.732 850.306 555.003 850.488 555.242C850.67 555.482 850.91 555.669 851.207 555.805C851.504 555.94 851.827 556.008 852.176 556.008C852.592 556.008 852.965 555.914 853.293 555.727C853.621 555.539 853.879 555.281 854.066 554.953C854.254 554.625 854.347 554.253 854.347 553.836C854.347 553.409 854.251 553.029 854.058 552.695C853.871 552.362 853.608 552.102 853.269 551.914C852.931 551.721 852.545 551.625 852.113 551.625C851.665 551.62 851.285 551.695 850.972 551.852C850.66 552.008 850.415 552.255 850.238 552.594H848.355L849.035 546.188H855.715V547.891H850.715L850.371 550.898H850.465C850.694 550.643 851.004 550.435 851.394 550.273C851.79 550.112 852.215 550.031 852.668 550.031C853.361 550.031 853.986 550.193 854.543 550.516C855.1 550.833 855.535 551.279 855.847 551.852C856.165 552.419 856.324 553.062 856.324 553.781C856.324 554.526 856.147 555.193 855.793 555.781C855.439 556.37 854.946 556.831 854.316 557.164C853.691 557.492 852.978 557.656 852.176 557.656ZM861.887 557.656C860.981 557.656 860.202 557.43 859.551 556.977C858.905 556.523 858.408 555.862 858.059 554.992C857.715 554.117 857.543 553.068 857.543 551.844C857.543 550.62 857.715 549.573 858.059 548.703C858.408 547.833 858.908 547.172 859.559 546.719C860.21 546.26 860.986 546.031 861.887 546.031C862.788 546.031 863.564 546.26 864.215 546.719C864.871 547.172 865.371 547.836 865.715 548.711C866.059 549.581 866.231 550.625 866.231 551.844C866.231 553.073 866.059 554.122 865.715 554.992C865.376 555.862 864.879 556.523 864.223 556.977C863.572 557.43 862.793 557.656 861.887 557.656ZM861.887 555.945C862.361 555.945 862.77 555.792 863.113 555.484C863.457 555.172 863.72 554.711 863.903 554.102C864.09 553.487 864.181 552.734 864.176 551.844C864.176 550.958 864.082 550.208 863.895 549.594C863.712 548.974 863.449 548.508 863.106 548.195C862.767 547.878 862.361 547.719 861.887 547.719C861.413 547.719 861.004 547.878 860.66 548.195C860.322 548.508 860.059 548.974 859.871 549.594C859.684 550.208 859.59 550.958 859.59 551.844C859.59 552.734 859.681 553.487 859.863 554.102C860.051 554.711 860.317 555.172 860.66 555.484C861.004 555.792 861.413 555.945 861.887 555.945ZM871.856 557.656C871.054 557.651 870.322 557.471 869.661 557.117C869.004 556.758 868.471 556.172 868.059 555.359C867.648 554.542 867.442 553.477 867.442 552.164C867.442 550.883 867.627 549.781 867.997 548.859C868.366 547.938 868.89 547.237 869.567 546.758C870.249 546.273 871.051 546.031 871.973 546.031C872.687 546.031 873.325 546.169 873.887 546.445C874.45 546.716 874.905 547.094 875.254 547.578C875.609 548.062 875.827 548.615 875.911 549.234H873.903C873.825 548.938 873.7 548.682 873.528 548.469C873.361 548.25 873.145 548.083 872.879 547.969C872.614 547.854 872.312 547.797 871.973 547.797C871.431 547.797 870.971 547.951 870.59 548.258C870.21 548.56 869.918 548.997 869.715 549.57C869.517 550.143 869.418 550.831 869.418 551.633H869.528C869.721 551.305 869.963 551.023 870.254 550.789C870.551 550.555 870.885 550.378 871.254 550.258C871.629 550.133 872.02 550.07 872.426 550.07C873.098 550.07 873.708 550.229 874.254 550.547C874.806 550.859 875.239 551.297 875.551 551.859C875.864 552.417 876.02 553.049 876.02 553.758C876.02 554.497 875.846 555.164 875.497 555.758C875.153 556.352 874.663 556.818 874.028 557.156C873.398 557.49 872.674 557.656 871.856 557.656ZM871.848 556.008C872.26 556.008 872.632 555.911 872.965 555.719C873.299 555.521 873.562 555.253 873.754 554.914C873.952 554.576 874.051 554.206 874.051 553.805C874.051 553.398 873.958 553.029 873.77 552.695C873.583 552.362 873.322 552.102 872.989 551.914C872.661 551.721 872.286 551.625 871.864 551.625C871.458 551.625 871.085 551.724 870.747 551.922C870.408 552.115 870.14 552.38 869.942 552.719C869.744 553.052 869.64 553.417 869.629 553.812C869.635 554.203 869.734 554.568 869.926 554.906C870.124 555.24 870.39 555.508 870.723 555.711C871.056 555.909 871.431 556.008 871.848 556.008Z" fill="black"/>
</g>
<g id="room_10">
<rect x="467" y="282" width="271" height="167" fill="#EBEBF5"/>
<rect x="467" y="282" width="271" height="167" stroke="#1D2056"/>
<path id="106_10" d="M592.558 371.5H590.511V362.172H590.449L587.8 363.867V362L590.605 360.188H592.558V371.5ZM599.004 371.656C598.264 371.656 597.592 371.518 596.988 371.242C596.389 370.961 595.918 370.576 595.574 370.086C595.23 369.596 595.045 369.044 595.019 368.43H596.996C597.027 368.732 597.134 369.003 597.316 369.242C597.499 369.482 597.738 369.669 598.035 369.805C598.332 369.94 598.655 370.008 599.004 370.008C599.42 370.008 599.793 369.914 600.121 369.727C600.449 369.539 600.707 369.281 600.894 368.953C601.082 368.625 601.176 368.253 601.176 367.836C601.176 367.409 601.079 367.029 600.887 366.695C600.699 366.362 600.436 366.102 600.097 365.914C599.759 365.721 599.374 365.625 598.941 365.625C598.493 365.62 598.113 365.695 597.801 365.852C597.488 366.008 597.243 366.255 597.066 366.594H595.183L595.863 360.188H602.543V361.891H597.543L597.199 364.898H597.293C597.522 364.643 597.832 364.435 598.222 364.273C598.618 364.112 599.043 364.031 599.496 364.031C600.189 364.031 600.814 364.193 601.371 364.516C601.928 364.833 602.363 365.279 602.676 365.852C602.993 366.419 603.152 367.062 603.152 367.781C603.152 368.526 602.975 369.193 602.621 369.781C602.267 370.37 601.775 370.831 601.144 371.164C600.519 371.492 599.806 371.656 599.004 371.656ZM609.137 371.5H607.09V362.172H607.028L604.379 363.867V362L607.184 360.188H609.137V371.5ZM616.161 371.5H614.114V362.172H614.051L611.403 363.867V362L614.208 360.188H616.161V371.5Z" fill="black"/>
</g>
<g id="room_11">
<rect x="737" y="697" width="119" height="130" fill="#EBEBF5"/>
<rect x="737" y="697" width="119" height="130" stroke="#1D2056"/>
<path id="106_11" d="M783.855 768H781.808V758.672H781.746L779.097 760.367V758.5L781.902 756.688H783.855V768ZM790.301 768.156C789.561 768.156 788.889 768.018 788.285 767.742C787.686 767.461 787.215 767.076 786.871 766.586C786.527 766.096 786.342 765.544 786.316 764.93H788.293C788.324 765.232 788.431 765.503 788.613 765.742C788.795 765.982 789.035 766.169 789.332 766.305C789.629 766.44 789.952 766.508 790.301 766.508C790.717 766.508 791.09 766.414 791.418 766.227C791.746 766.039 792.004 765.781 792.191 765.453C792.379 765.125 792.472 764.753 792.472 764.336C792.472 763.909 792.376 763.529 792.183 763.195C791.996 762.862 791.733 762.602 791.394 762.414C791.056 762.221 790.67 762.125 790.238 762.125C789.79 762.12 789.41 762.195 789.097 762.352C788.785 762.508 788.54 762.755 788.363 763.094H786.48L787.16 756.688H793.84V758.391H788.84L788.496 761.398H788.59C788.819 761.143 789.129 760.935 789.519 760.773C789.915 760.612 790.34 760.531 790.793 760.531C791.486 760.531 792.111 760.693 792.668 761.016C793.225 761.333 793.66 761.779 793.972 762.352C794.29 762.919 794.449 763.562 794.449 764.281C794.449 765.026 794.272 765.693 793.918 766.281C793.564 766.87 793.071 767.331 792.441 767.664C791.816 767.992 791.103 768.156 790.301 768.156ZM800.012 768.156C799.106 768.156 798.327 767.93 797.676 767.477C797.03 767.023 796.533 766.362 796.184 765.492C795.84 764.617 795.668 763.568 795.668 762.344C795.668 761.12 795.84 760.073 796.184 759.203C796.533 758.333 797.033 757.672 797.684 757.219C798.335 756.76 799.111 756.531 800.012 756.531C800.913 756.531 801.689 756.76 802.34 757.219C802.996 757.672 803.496 758.336 803.84 759.211C804.184 760.081 804.356 761.125 804.356 762.344C804.356 763.573 804.184 764.622 803.84 765.492C803.501 766.362 803.004 767.023 802.348 767.477C801.697 767.93 800.918 768.156 800.012 768.156ZM800.012 766.445C800.486 766.445 800.895 766.292 801.238 765.984C801.582 765.672 801.845 765.211 802.028 764.602C802.215 763.987 802.306 763.234 802.301 762.344C802.301 761.458 802.207 760.708 802.02 760.094C801.837 759.474 801.574 759.008 801.231 758.695C800.892 758.378 800.486 758.219 800.012 758.219C799.538 758.219 799.129 758.378 798.785 758.695C798.447 759.008 798.184 759.474 797.996 760.094C797.809 760.708 797.715 761.458 797.715 762.344C797.715 763.234 797.806 763.987 797.988 764.602C798.176 765.211 798.442 765.672 798.785 765.984C799.129 766.292 799.538 766.445 800.012 766.445ZM809.754 768.156C809.015 768.156 808.343 768.018 807.739 767.742C807.14 767.461 806.668 767.076 806.325 766.586C805.981 766.096 805.796 765.544 805.77 764.93H807.747C807.778 765.232 807.885 765.503 808.067 765.742C808.249 765.982 808.489 766.169 808.786 766.305C809.083 766.44 809.405 766.508 809.754 766.508C810.171 766.508 810.543 766.414 810.872 766.227C811.2 766.039 811.458 765.781 811.645 765.453C811.833 765.125 811.926 764.753 811.926 764.336C811.926 763.909 811.83 763.529 811.637 763.195C811.45 762.862 811.187 762.602 810.848 762.414C810.51 762.221 810.124 762.125 809.692 762.125C809.244 762.12 808.864 762.195 808.551 762.352C808.239 762.508 807.994 762.755 807.817 763.094H805.934L806.614 756.688H813.293V758.391H808.293L807.95 761.398H808.043C808.273 761.143 808.583 760.935 808.973 760.773C809.369 760.612 809.793 760.531 810.247 760.531C810.939 760.531 811.564 760.693 812.122 761.016C812.679 761.333 813.114 761.779 813.426 762.352C813.744 762.919 813.903 763.562 813.903 764.281C813.903 765.026 813.726 765.693 813.372 766.281C813.017 766.87 812.525 767.331 811.895 767.664C811.27 767.992 810.556 768.156 809.754 768.156Z" fill="black"/>
</g>
<g id="room_12">
<rect x="896" y="654" width="83" height="174" fill="#F5F7FA"/>
<rect x="896" y="654" width="83" height="174" stroke="#1D2056"/>
</g>
<g id="room_13">
<path d="M522 593.094L522 529.094L738 529.094L738 593.094L522 593.094Z" fill="white"/>
<path d="M522 529.094L522 528.594L521.5 528.594L521.5 529.094L522 529.094ZM738 529.094L738.5 529.094L738.5 528.594L738 528.594L738 529.094ZM522 593.094L522.5 593.094L522.5 529.094L522 529.094L521.5 529.094L521.5 593.094L522 593.094ZM522 529.094L522 529.594L738 529.594L738 529.094L738 528.594L522 528.594L522 529.094ZM738 529.094L737.5 529.094L737.5 593.094L738 593.094L738.5 593.094L738.5 529.094L738 529.094Z" fill="#1D2056"/>
</g>
<g id="map_elevator" clip-path="url(#clip0_908_29551)">
<rect id="Rectangle 240653084" x="543" y="545.352" width="32" height="32" rx="4" fill="#474F5A"/>
<path id="Subtract" d="M569.668 548.02C571.14 548.02 572.334 549.213 572.334 550.686V572.02C572.334 573.492 571.14 574.685 569.668 574.686H548.334C546.861 574.685 545.668 573.492 545.668 572.02V550.686C545.668 549.213 546.861 548.02 548.334 548.02H569.668ZM549.668 556.02V572.02H557.668V556.02H549.668ZM560.334 556.02V572.02H568.334V556.02H560.334ZM556.334 550.686C555.598 550.686 555.001 551.283 555.001 552.02C555.001 552.756 555.598 553.352 556.334 553.353H561.668C562.404 553.352 563.001 552.756 563.001 552.02C563.001 551.283 562.404 550.686 561.668 550.686H556.334Z" fill="white"/>
</g>
<g id="map_elevator_2" clip-path="url(#clip1_908_29551)">
<rect id="Rectangle 240653084_2" x="684" y="545.352" width="32" height="32" rx="4" fill="#474F5A"/>
<path id="Subtract_2" d="M710.668 548.02C712.14 548.02 713.334 549.213 713.334 550.686V572.02C713.334 573.492 712.14 574.685 710.668 574.686H689.334C687.861 574.685 686.668 573.492 686.668 572.02V550.686C686.668 549.213 687.861 548.02 689.334 548.02H710.668ZM690.668 556.02V572.02H698.668V556.02H690.668ZM701.334 556.02V572.02H709.334V556.02H701.334ZM697.334 550.686C696.598 550.686 696.001 551.283 696.001 552.02C696.001 552.756 696.598 553.352 697.334 553.353H702.668C703.404 553.352 704.001 552.756 704.001 552.02C704.001 551.283 703.404 550.686 702.668 550.686H697.334Z" fill="white"/>
</g>
<g id="map_elevator_3" clip-path="url(#clip2_908_29551)">
<rect id="Rectangle 240653084_3" x="614" y="545.352" width="32" height="32" rx="4" fill="#474F5A"/>
<path id="Subtract_3" d="M640.668 548.02C642.14 548.02 643.334 549.213 643.334 550.686V572.02C643.334 573.492 642.14 574.685 640.668 574.686H619.334C617.861 574.685 616.668 573.492 616.668 572.02V550.686C616.668 549.213 617.861 548.02 619.334 548.02H640.668ZM620.668 556.02V572.02H628.668V556.02H620.668ZM631.334 556.02V572.02H639.334V556.02H631.334ZM627.334 550.686C626.598 550.686 626.001 551.283 626.001 552.02C626.001 552.756 626.598 553.352 627.334 553.353H632.668C633.404 553.352 634.001 552.756 634.001 552.02C634.001 551.283 633.404 550.686 632.668 550.686H627.334Z" fill="white"/>
</g>
<path id="Vector 29295" d="M467 746.094H585" stroke="#1D2056"/>
<path id="Vector 29310" d="M468 698H586" stroke="#1D2056"/>
<path id="Vector 29311" d="M469 744L469 698" stroke="#1D2056"/>
<path id="Vector 29308" d="M468 827L468 746" stroke="#1D2056"/>
<path id="Vector 29294" d="M658 449.352L658 529.352" stroke="#1D2056"/>
<g id="map_stairs" clip-path="url(#clip3_908_29551)">
<rect id="Rectangle 240653084_4" x="578" y="473.352" width="32" height="32" rx="4" fill="#474F5A"/>
<path id="Subtract_4" d="M603.333 476.02C604.806 476.02 606 477.213 606 478.686V500.02C606 501.492 604.806 502.686 603.333 502.686H584.667C583.194 502.686 582 501.492 582 500.02V478.686C582 477.213 583.194 476.02 584.667 476.02H603.333ZM586 496.02C585.264 496.02 584.667 496.616 584.667 497.353V500.02H603.333V496.02H586ZM591.333 490.02C590.597 490.02 590 490.616 590 491.353V494.02H603.333V490.02H591.333ZM596.667 484.02C595.931 484.02 595.333 484.616 595.333 485.353V488.02H603.333V484.02H596.667Z" fill="white"/>
</g>
<g id="map_stairs_2" clip-path="url(#clip4_908_29551)">
<rect id="Rectangle 240653084_5" x="528" y="770.352" width="32" height="32" rx="4" fill="#474F5A"/>
<path id="Subtract_5" d="M553.333 773.02C554.806 773.02 556 774.213 556 775.686V797.02C556 798.492 554.806 799.686 553.333 799.686H534.667C533.194 799.686 532 798.492 532 797.02V775.686C532 774.213 533.194 773.02 534.667 773.02H553.333ZM536 793.02C535.264 793.02 534.667 793.616 534.667 794.353V797.02H553.333V793.02H536ZM541.333 787.02C540.597 787.02 540 787.616 540 788.353V791.02H553.333V787.02H541.333ZM546.667 781.02C545.931 781.02 545.333 781.616 545.333 782.353V785.02H553.333V781.02H546.667Z" fill="white"/>
</g>
<g id="door">
<path id="Intersect" d="M467 437.094L467 421.094C475.837 421.094 483 428.257 483 437.094L467 437.094Z" fill="white"/>
<path id="Intersect_2" d="M467 437.094L483 437.094C483 428.257 475.837 421.094 467 421.094" stroke="#1D2056"/>
<rect id="Rectangle 240653104" x="467" y="421.594" width="15" height="0.5" transform="rotate(90 467 421.594)" fill="white"/>
<rect id="Rectangle 240653105" x="467" y="420.594" width="1" height="0.5" transform="rotate(90 467 420.594)" fill="#1D2056"/>
<rect id="Rectangle 240653106" x="467" y="436.594" width="1" height="0.5" transform="rotate(90 467 436.594)" fill="#1D2056"/>
</g>
<g id="door_2">
<path id="Intersect_3" d="M405 551L405 535C396.163 535 389 542.163 389 551L405 551Z" fill="white"/>
<path id="Intersect_4" d="M405 551L389 551C389 542.163 396.163 535 405 535" stroke="#1D2056"/>
<rect id="Rectangle 240653104_2" width="15" height="0.5" transform="matrix(4.37114e-08 1 1 -4.37114e-08 405 535.5)" fill="white"/>
<rect id="Rectangle 240653105_2" width="1" height="0.5" transform="matrix(4.37114e-08 1 1 -4.37114e-08 405 534.5)" fill="#1D2056"/>
<rect id="Rectangle 240653106_2" width="1" height="0.5" transform="matrix(4.37114e-08 1 1 -4.37114e-08 405 550.5)" fill="#1D2056"/>
</g>
<g id="door_3">
<path id="Intersect_5" d="M405 295.094L405 311.094C396.163 311.094 389 303.93 389 295.094L405 295.094Z" fill="white"/>
<path id="Intersect_6" d="M405 295.094L389 295.094C389 303.93 396.163 311.094 405 311.094" stroke="#1D2056"/>
<rect id="Rectangle 240653104_3" x="405" y="310.594" width="15" height="0.5" transform="rotate(-90 405 310.594)" fill="white"/>
<rect id="Rectangle 240653105_3" x="405" y="311.594" width="1" height="0.5" transform="rotate(-90 405 311.594)" fill="#1D2056"/>
<rect id="Rectangle 240653106_3" x="405" y="295.594" width="1" height="0.5" transform="rotate(-90 405 295.594)" fill="#1D2056"/>
</g>
<g id="door_4">
<path id="Intersect_7" d="M405 708L405 724C396.163 724 389 716.837 389 708L405 708Z" fill="white"/>
<path id="Intersect_8" d="M405 708L389 708C389 716.837 396.163 724 405 724" stroke="#1D2056"/>
<rect id="Rectangle 240653104_4" x="405" y="723.5" width="15" height="0.5" transform="rotate(-90 405 723.5)" fill="white"/>
<rect id="Rectangle 240653105_4" x="405" y="724.5" width="1" height="0.5" transform="rotate(-90 405 724.5)" fill="#1D2056"/>
<rect id="Rectangle 240653106_4" x="405" y="708.5" width="1" height="0.5" transform="rotate(-90 405 708.5)" fill="#1D2056"/>
</g>
<g id="door_5">
<path id="Intersect_9" d="M452 839.094L452 855.094C460.837 855.094 468 847.93 468 839.094L452 839.094Z" fill="white"/>
<path id="Intersect_10" d="M452 839.094L468 839.094C468 847.93 460.837 855.094 452 855.094" stroke="#1D2056"/>
<rect id="Rectangle 240653104_5" width="15" height="0.5" transform="matrix(-4.37114e-08 -1 -1 4.37114e-08 452 854.594)" fill="white"/>
<rect id="Rectangle 240653105_5" width="1" height="0.5" transform="matrix(-4.37114e-08 -1 -1 4.37114e-08 452 855.594)" fill="#1D2056"/>
<rect id="Rectangle 240653106_5" width="1" height="0.5" transform="matrix(-4.37114e-08 -1 -1 4.37114e-08 452 839.594)" fill="#1D2056"/>
</g>
<g id="door_6">
<path id="Intersect_11" d="M405 583L405 599C396.163 599 389 591.837 389 583L405 583Z" fill="white"/>
<path id="Intersect_12" d="M405 583L389 583C389 591.837 396.163 599 405 599" stroke="#1D2056"/>
<rect id="Rectangle 240653104_6" x="405" y="598.5" width="15" height="0.5" transform="rotate(-90 405 598.5)" fill="white"/>
<rect id="Rectangle 240653105_6" x="405" y="599.5" width="1" height="0.5" transform="rotate(-90 405 599.5)" fill="#1D2056"/>
<rect id="Rectangle 240653106_6" x="405" y="583.5" width="1" height="0.5" transform="rotate(-90 405 583.5)" fill="#1D2056"/>
</g>
<g id="door_7">
<path id="Intersect_13" d="M578 919.094L562 919.094C562 927.93 569.163 935.094 578 935.094L578 919.094Z" fill="white"/>
<path id="Intersect_14" d="M578 919.094L578 935.094C569.163 935.094 562 927.93 562 919.094" stroke="#1D2056"/>
<rect id="Rectangle 240653104_7" width="15" height="0.5" transform="matrix(1 8.74228e-08 8.74228e-08 -1 562.5 919.094)" fill="white"/>
<rect id="Rectangle 240653105_7" width="1" height="0.5" transform="matrix(1 8.74228e-08 8.74228e-08 -1 561.5 919.094)" fill="#1D2056"/>
<rect id="Rectangle 240653106_7" width="1" height="0.5" transform="matrix(1 8.74228e-08 8.74228e-08 -1 577.5 919.094)" fill="#1D2056"/>
</g>
<g id="door_8">
<path id="Intersect_15" d="M441 919.094L425 919.094C425 927.93 432.163 935.094 441 935.094L441 919.094Z" fill="white"/>
<path id="Intersect_16" d="M441 919.094L441 935.094C432.163 935.094 425 927.93 425 919.094" stroke="#1D2056"/>
<rect id="Rectangle 240653104_8" width="15" height="0.5" transform="matrix(1 8.74228e-08 8.74228e-08 -1 425.5 919.094)" fill="white"/>
<rect id="Rectangle 240653105_8" width="1" height="0.5" transform="matrix(1 8.74228e-08 8.74228e-08 -1 424.5 919.094)" fill="#1D2056"/>
<rect id="Rectangle 240653106_8" width="1" height="0.5" transform="matrix(1 8.74228e-08 8.74228e-08 -1 440.5 919.094)" fill="#1D2056"/>
</g>
<g id="door_9">
<path id="Intersect_17" d="M463 919.094L479 919.094C479 927.93 471.837 935.094 463 935.094L463 919.094Z" fill="white"/>
<path id="Intersect_18" d="M463 919.094L463 935.094C471.837 935.094 479 927.93 479 919.094" stroke="#1D2056"/>
<rect id="Rectangle 240653104_9" x="478.5" y="919.094" width="15" height="0.5" transform="rotate(180 478.5 919.094)" fill="white"/>
<rect id="Rectangle 240653105_9" x="479.5" y="919.094" width="1" height="0.5" transform="rotate(180 479.5 919.094)" fill="#1D2056"/>
<rect id="Rectangle 240653106_9" x="463.5" y="919.094" width="1" height="0.5" transform="rotate(180 463.5 919.094)" fill="#1D2056"/>
</g>
<g id="door_10">
<path id="Intersect_19" d="M589 903L589 919C597.837 919 605 911.837 605 903L589 903Z" fill="white"/>
<path id="Intersect_20" d="M589 903L605 903C605 911.837 597.837 919 589 919" stroke="#1D2056"/>
<rect id="Rectangle 240653104_10" width="15" height="0.5" transform="matrix(-4.37114e-08 -1 -1 4.37114e-08 589 918.5)" fill="white"/>
<rect id="Rectangle 240653105_10" width="1" height="0.5" transform="matrix(-4.37114e-08 -1 -1 4.37114e-08 589 919.5)" fill="#1D2056"/>
<rect id="Rectangle 240653106_10" width="1" height="0.5" transform="matrix(-4.37114e-08 -1 -1 4.37114e-08 589 903.5)" fill="#1D2056"/>
</g>
<g id="room_14">
<rect x="610" y="697.094" width="88" height="180" fill="#F5F7FA"/>
<rect x="610" y="697.094" width="88" height="180" stroke="#1D2056"/>
<g id="map_toilet_male">
<path id="Vector" fill-rule="evenodd" clip-rule="evenodd" d="M630.431 783.22C631.258 783.153 632.431 783.094 634.002 783.094C635.573 783.094 636.745 783.152 637.572 783.22C638.659 783.307 639.554 784.005 639.896 785.006C640.587 787.039 641.065 789.134 641.322 791.261C641.451 792.356 640.603 793.301 639.481 793.369C639.154 793.389 638.786 793.41 638.381 793.429L637.988 798.571C637.917 799.502 637.197 800.279 636.22 800.375C636.04 800.392 635.848 800.41 635.648 800.425C635.529 800.433 635.41 800.419 635.297 800.382C635.184 800.345 635.081 800.286 634.992 800.209C634.903 800.132 634.831 800.038 634.781 799.933C634.73 799.829 634.702 799.715 634.697 799.6L634.474 794.391C634.471 794.316 634.438 794.245 634.382 794.194C634.326 794.142 634.252 794.113 634.175 794.113H633.827C633.75 794.113 633.676 794.142 633.62 794.194C633.565 794.246 633.532 794.316 633.529 794.391L633.306 799.6C633.302 799.715 633.273 799.829 633.223 799.933C633.172 800.038 633.1 800.132 633.011 800.209C632.923 800.286 632.819 800.345 632.706 800.382C632.593 800.419 632.474 800.433 632.355 800.425C632.164 800.41 631.973 800.393 631.783 800.374C630.807 800.279 630.086 799.502 630.014 798.571L629.622 793.429C629.217 793.409 628.85 793.39 628.521 793.369C627.399 793.301 626.551 792.356 626.681 791.261C626.938 789.135 627.416 787.039 628.107 785.006C628.449 784.005 629.344 783.307 630.431 783.22Z" fill="#2297EB"/>
<path id="Vector_2" d="M634.016 781.845C636.617 781.845 638.081 780.39 638.081 777.804C638.081 775.215 636.619 773.76 634.016 773.76C631.413 773.76 629.949 775.215 629.949 777.804C629.949 780.39 631.413 781.845 634.016 781.845Z" fill="#2297EB"/>
</g>
</g>
<g id="room_15">
<rect x="657" y="697.094" width="81" height="130" fill="#F5F7FA"/>
<rect x="657" y="697.094" width="81" height="130" stroke="#1D2056"/>
<g id="map_toilet_female">
<path id="Vector_3" fill-rule="evenodd" clip-rule="evenodd" d="M697.501 758.303C696.248 758.303 695.239 758.697 694.42 759.369C693.611 760.03 693.008 760.945 692.522 761.956C691.817 763.419 691.377 765.276 691.182 766.977C691.029 768.339 692.152 769.405 693.459 769.405H693.723L694.254 772.678C694.378 773.445 694.773 774.143 695.367 774.646C695.962 775.15 696.717 775.426 697.497 775.426C698.278 775.426 699.033 775.15 699.628 774.646C700.222 774.143 700.617 773.445 700.741 772.678L701.273 769.405H701.543C702.85 769.405 703.974 768.339 703.821 766.977C703.625 765.276 703.185 763.419 702.481 761.956C701.995 760.945 701.392 760.032 700.582 759.367C699.763 758.697 698.755 758.301 697.501 758.301V758.303ZM701.581 752.804C701.581 755.39 700.117 756.845 697.517 756.845C694.914 756.845 693.45 755.39 693.45 752.804C693.45 750.215 694.914 748.76 697.517 748.76C700.119 748.76 701.581 750.215 701.581 752.804Z" fill="#FF338B"/>
</g>
</g>
<g id="Rectangle 240653151">
<mask id="path-137-inside-2_908_29551" fill="white">
<path d="M656.5 696.5H696.5V733.5H656.5V696.5Z"/>
</mask>
<path d="M656.5 696.5H696.5V733.5H656.5V696.5Z" fill="white"/>
<path d="M696.5 733.5V734.5H697.5V733.5H696.5ZM656.5 733.5H655.5V734.5H656.5V733.5ZM696.5 696.5H695.5V733.5H696.5H697.5V696.5H696.5ZM696.5 733.5V732.5H656.5V733.5V734.5H696.5V733.5ZM656.5 733.5H657.5V696.5H656.5H655.5V733.5H656.5Z" fill="#1D2056" mask="url(#path-137-inside-2_908_29551)"/>
</g>
<g id="door_11">
<path id="Intersect_21" d="M657 704.094L657 720.094C648.163 720.094 641 712.93 641 704.094L657 704.094Z" fill="white"/>
<path id="Intersect_22" d="M657 704.094L641 704.094C641 712.93 648.163 720.094 657 720.094" stroke="#1D2056"/>
<rect id="Rectangle 240653104_11" x="657" y="719.594" width="15" height="0.5" transform="rotate(-90 657 719.594)" fill="white"/>
<rect id="Rectangle 240653105_11" x="657" y="720.594" width="1" height="0.5" transform="rotate(-90 657 720.594)" fill="#1D2056"/>
<rect id="Rectangle 240653106_11" x="657" y="704.594" width="1" height="0.5" transform="rotate(-90 657 704.594)" fill="#1D2056"/>
</g>
<g id="door_12">
<path id="Intersect_23" d="M696 704.094L696 720.094C704.837 720.094 712 712.93 712 704.094L696 704.094Z" fill="white"/>
<path id="Intersect_24" d="M696 704.094L712 704.094C712 712.93 704.837 720.094 696 720.094" stroke="#1D2056"/>
<rect id="Rectangle 240653104_12" width="15" height="0.5" transform="matrix(4.37114e-08 -1 -1 -4.37114e-08 696 719.594)" fill="white"/>
<rect id="Rectangle 240653105_12" width="1" height="0.5" transform="matrix(4.37114e-08 -1 -1 -4.37114e-08 696 720.594)" fill="#1D2056"/>
<rect id="Rectangle 240653106_12" width="1" height="0.5" transform="matrix(4.37114e-08 -1 -1 -4.37114e-08 696 704.594)" fill="#1D2056"/>
</g>
<g id="door_13">
<path id="Intersect_25" d="M467 328L467 344C475.837 344 483 336.837 483 328L467 328Z" fill="white"/>
<path id="Intersect_26" d="M467 328L483 328C483 336.837 475.837 344 467 344" stroke="#1D2056"/>
<rect id="Rectangle 240653104_13" width="15" height="0.5" transform="matrix(-4.37114e-08 -1 -1 4.37114e-08 467 343.5)" fill="white"/>
<rect id="Rectangle 240653105_13" width="1" height="0.5" transform="matrix(-4.37114e-08 -1 -1 4.37114e-08 467 344.5)" fill="#1D2056"/>
<rect id="Rectangle 240653106_13" width="1" height="0.5" transform="matrix(-4.37114e-08 -1 -1 4.37114e-08 467 328.5)" fill="#1D2056"/>
</g>
<g id="door_14">
<path id="Intersect_27" d="M760 654L776 654C776 645.163 768.837 638 760 638L760 654Z" fill="white"/>
<path id="Intersect_28" d="M760 654L760 638C768.837 638 776 645.163 776 654" stroke="#1D2056"/>
<rect id="Rectangle 240653104_14" width="15" height="0.5" transform="matrix(-1 8.74228e-08 8.74228e-08 1 775.5 654)" fill="white"/>
<rect id="Rectangle 240653105_14" width="1" height="0.5" transform="matrix(-1 8.74228e-08 8.74228e-08 1 776.5 654)" fill="#1D2056"/>
<rect id="Rectangle 240653106_14" width="1" height="0.5" transform="matrix(-1 8.74228e-08 8.74228e-08 1 760.5 654)" fill="#1D2056"/>
</g>
<g id="door_15">
<path id="Intersect_29" d="M840 697L824 697C824 705.837 831.163 713 840 713L840 697Z" fill="white"/>
<path id="Intersect_30" d="M840 697L840 713C831.163 713 824 705.837 824 697" stroke="#1D2056"/>
<rect id="Rectangle 240653104_15" width="15" height="0.5" transform="matrix(1 -8.74228e-08 -8.74228e-08 -1 824.5 697)" fill="white"/>
<rect id="Rectangle 240653105_15" width="1" height="0.5" transform="matrix(1 -8.74228e-08 -8.74228e-08 -1 823.5 697)" fill="#1D2056"/>
<rect id="Rectangle 240653106_15" width="1" height="0.5" transform="matrix(1 -8.74228e-08 -8.74228e-08 -1 839.5 697)" fill="#1D2056"/>
</g>
<g id="door_16">
<path id="Intersect_31" d="M896 672L896 688C904.837 688 912 680.837 912 672L896 672Z" fill="white"/>
<path id="Intersect_32" d="M896 672L912 672C912 680.837 904.837 688 896 688" stroke="#1D2056"/>
<rect id="Rectangle 240653104_16" width="15" height="0.5" transform="matrix(1.19249e-08 -1 -1 -1.19249e-08 896 687.5)" fill="white"/>
<rect id="Rectangle 240653105_16" width="1" height="0.5" transform="matrix(1.19249e-08 -1 -1 -1.19249e-08 896 688.5)" fill="#1D2056"/>
<rect id="Rectangle 240653106_16" width="1" height="0.5" transform="matrix(1.19249e-08 -1 -1 -1.19249e-08 896 672.5)" fill="#1D2056"/>
</g>
</g>
<g id="Hitbox">
<rect id="room_1510" x="207" y="280" width="198" height="288" fill="#D9D9D9" fill-opacity="0.01"/>
<rect id="room_1509" x="207" y="568" width="198" height="125" fill="#D9D9D9" fill-opacity="0.01"/>
<rect id="room_1508" x="207" y="693" width="198" height="146" fill="#D9D9D9" fill-opacity="0.01"/>
<rect id="room_1507" x="452" y="827" width="158" height="50" fill="#D9D9D9" fill-opacity="0.01"/>
<rect id="room_1504" x="301" y="919" width="150" height="122" fill="#D9D9D9" fill-opacity="0.01"/>
<rect id="room_1503" x="451" y="919" width="65" height="122" fill="#D9D9D9" fill-opacity="0.01"/>
<rect id="room_1502" x="516" y="919" width="73" height="122" fill="#D9D9D9" fill-opacity="0.01"/>
<rect id="room_1501" x="589" y="877" width="149" height="164" fill="#D9D9D9" fill-opacity="0.01"/>
<path id="room_1505" d="M856 828H738V697H856V828Z" fill="#D9D9D9" fill-opacity="0.01"/>
<rect id="room_1506" x="738" y="449" width="241" height="205" fill="#D9D9D9" fill-opacity="0.01"/>
<rect id="room_1507_2" opacity="0.1" x="452" y="827" width="158" height="50" fill="#D9D9D9" fill-opacity="0.01"/>
<path id="room_1511" d="M738 448V282H467V448H738Z" fill="#D9D9D9" fill-opacity="0.01"/>
</g>
</g>
<defs>
<clipPath id="clip0_908_29551">
<rect width="32" height="32" fill="white" transform="translate(543 545.352)"/>
</clipPath>
<clipPath id="clip1_908_29551">
<rect width="32" height="32" fill="white" transform="translate(684 545.352)"/>
</clipPath>
<clipPath id="clip2_908_29551">
<rect width="32" height="32" fill="white" transform="translate(614 545.352)"/>
</clipPath>
<clipPath id="clip3_908_29551">
<rect width="32" height="32" fill="white" transform="translate(578 473.352)"/>
</clipPath>
<clipPath id="clip4_908_29551">
<rect width="32" height="32" fill="white" transform="translate(528 770.352)"/>
</clipPath>
</defs>
</svg>
