<svg width="1920" height="1235" viewBox="0 0 1920 1235" fill="none" xmlns="http://www.w3.org/2000/svg">
<g>
<g id="Union">
<mask id="path-1-outside-1_1149_41316" maskUnits="userSpaceOnUse" x="262" y="389" width="1470" height="383" fill="black">
<rect fill="white" x="262" y="389" width="1470" height="383"/>
<path d="M1729 392V584H1697V769H265V392H1729Z"/>
</mask>
<path d="M1729 392V584H1697V769H265V392H1729Z" fill="white"/>
<path d="M1729 392H1732V389H1729V392ZM1729 584V587H1732V584H1729ZM1697 584V581H1694V584H1697ZM1697 769V772H1700V769H1697ZM265 769H262V772H265V769ZM265 392V389H262V392H265ZM1729 392H1726V584H1729H1732V392H1729ZM1729 584V581H1697V584V587H1729V584ZM1697 584H1694V769H1697H1700V584H1697ZM1697 769V766H265V769V772H1697V769ZM265 769H268V392H265H262V769H265ZM265 392V395H1729V392V389H265V392Z" fill="#1D2056" mask="url(#path-1-outside-1_1149_41316)"/>
</g>
<g id="Union_2">
<path d="M1729 392V584H1697V769H265V392H1729Z" fill="white"/>
<path d="M1729 392H1730V391H1729V392ZM1729 584V585H1730V584H1729ZM1697 584V583H1696V584H1697ZM1697 769V770H1698V769H1697ZM265 769H264V770H265V769ZM265 392V391H264V392H265ZM1729 392H1728V584H1729H1730V392H1729ZM1729 584V583H1697V584V585H1729V584ZM1697 584H1696V769H1697H1698V584H1697ZM1697 769V768H265V769V770H1697V769ZM265 769H266V392H265H264V769H265ZM265 392V393H1729V392V391H265V392Z" fill="#1D2056"/>
</g>
<rect id="Rectangle 240653313" x="504" y="470" width="5" height="32" transform="rotate(-90 504 470)" fill="white"/>
<rect id="Rectangle 240653306" x="1219" y="472" width="5" height="32" transform="rotate(-90 1219 472)" fill="white"/>
<g id="room">
<rect x="266" y="393" width="87" height="190" fill="#EBEBF5"/>
<rect x="266" y="393" width="87" height="190" stroke="#1D2056"/>
</g>
<g id="room_2">
<rect x="353" y="393" width="87" height="190" fill="#EBEBF5"/>
<rect x="353" y="393" width="87" height="190" stroke="#1D2056"/>
</g>
<g id="room_3">
<rect x="440" y="393" width="87" height="190" fill="#EBEBF5"/>
<rect x="440" y="393" width="87" height="190" stroke="#1D2056"/>
</g>
<g id="room_4">
<rect x="527" y="393" width="87" height="190" fill="#EBEBF5"/>
<rect x="527" y="393" width="87" height="190" stroke="#1D2056"/>
</g>
<g id="room_5">
<rect x="614" y="393" width="87" height="190" fill="#EBEBF5"/>
<rect x="614" y="393" width="87" height="190" stroke="#1D2056"/>
</g>
<g id="room_6">
<rect x="701" y="393" width="87" height="190" fill="#EBEBF5"/>
<rect x="701" y="393" width="87" height="190" stroke="#1D2056"/>
</g>
<g id="room_7">
<rect x="788" y="393" width="87" height="190" fill="#EBEBF5"/>
<rect x="788" y="393" width="87" height="190" stroke="#1D2056"/>
</g>
<g id="room_8">
<rect x="875" y="393" width="89" height="190" fill="#EBEBF5"/>
<rect x="875" y="393" width="89" height="190" stroke="#1D2056"/>
</g>
<g id="room_9">
<rect x="964" y="393" width="85" height="190" fill="#EBEBF5"/>
<rect x="964" y="393" width="85" height="190" stroke="#1D2056"/>
</g>
<g id="room_10">
<rect x="1049" y="393" width="85" height="190" fill="#EBEBF5"/>
<rect x="1049" y="393" width="85" height="190" stroke="#1D2056"/>
</g>
<g id="room_11">
<rect x="1134" y="393" width="85" height="190" fill="#EBEBF5"/>
<rect x="1134" y="393" width="85" height="190" stroke="#1D2056"/>
</g>
<g id="room_12">
<rect x="1219" y="393" width="85" height="190" fill="#EBEBF5"/>
<rect x="1219" y="393" width="85" height="190" stroke="#1D2056"/>
</g>
<g id="room_13">
<rect x="1304" y="393" width="85" height="190" fill="#EBEBF5"/>
<rect x="1304" y="393" width="85" height="190" stroke="#1D2056"/>
</g>
<g id="room_14">
<rect x="1389" y="393" width="85" height="190" fill="#EBEBF5"/>
<rect x="1389" y="393" width="85" height="190" stroke="#1D2056"/>
</g>
<g id="room_15">
<rect x="1474" y="393" width="85" height="190" fill="#EBEBF5"/>
<rect x="1474" y="393" width="85" height="190" stroke="#1D2056"/>
</g>
<g id="room_16">
<rect x="1559" y="393" width="85" height="190" fill="#EBEBF5"/>
<rect x="1559" y="393" width="85" height="190" stroke="#1D2056"/>
</g>
<g id="room_17">
<rect x="1644" y="393" width="84" height="190" fill="#EBEBF5"/>
<rect x="1644" y="393" width="84" height="190" stroke="#1D2056"/>
</g>
<g id="room_18">
<rect x="266" y="637" width="103" height="131" fill="#F5F7FA"/>
<rect x="266" y="637" width="103" height="131" stroke="#1D2056"/>
</g>
<g id="room_19">
<rect x="1609" y="637" width="87" height="131" fill="#F5F7FA"/>
<rect x="1609" y="637" width="87" height="131" stroke="#1D2056"/>
</g>
<g id="room_20">
<rect x="528" y="637" width="77" height="131" fill="#F5F7FA"/>
<rect x="528" y="637" width="77" height="131" stroke="#1D2056"/>
<g id="map_toilet_male">
<path id="Vector" fill-rule="evenodd" clip-rule="evenodd" d="M562.929 698.626C563.756 698.559 564.929 698.5 566.5 698.5C568.071 698.5 569.244 698.559 570.07 698.626C571.157 698.713 572.052 699.412 572.394 700.412C573.085 702.445 573.563 704.541 573.82 706.667C573.949 707.762 573.101 708.707 571.979 708.776C571.653 708.795 571.284 708.816 570.879 708.835L570.486 713.977C570.415 714.908 569.695 715.685 568.718 715.781C568.539 715.798 568.346 715.816 568.146 715.831C568.027 715.84 567.908 715.825 567.795 715.788C567.682 715.751 567.579 715.692 567.49 715.615C567.401 715.538 567.329 715.444 567.279 715.34C567.228 715.235 567.2 715.122 567.195 715.006L566.972 709.797C566.969 709.722 566.936 709.652 566.88 709.6C566.824 709.548 566.75 709.519 566.673 709.519H566.325C566.248 709.519 566.174 709.548 566.118 709.6C566.063 709.652 566.03 709.723 566.027 709.798L565.804 715.006C565.8 715.122 565.771 715.235 565.721 715.34C565.67 715.444 565.598 715.538 565.509 715.615C565.421 715.692 565.317 715.751 565.204 715.788C565.091 715.825 564.972 715.84 564.853 715.831C564.662 715.816 564.472 715.799 564.281 715.78C563.305 715.685 562.584 714.908 562.512 713.977L562.12 708.835C561.715 708.816 561.348 708.796 561.019 708.776C559.897 708.707 559.049 707.762 559.179 706.667C559.436 704.541 559.914 702.446 560.605 700.413C560.947 699.412 561.842 698.713 562.929 698.626Z" fill="#2297EB"/>
<path id="Vector_2" d="M566.516 697.252C569.117 697.252 570.581 695.796 570.581 693.21C570.581 690.621 569.119 689.166 566.516 689.166C563.913 689.166 562.449 690.621 562.449 693.21C562.449 695.796 563.913 697.252 566.516 697.252Z" fill="#2297EB"/>
</g>
</g>
<g id="room_21">
<rect x="604" y="637" width="108" height="131" fill="#F5F7FA"/>
<rect x="604" y="637" width="108" height="131" stroke="#1D2056"/>
<g id="map_toilet_female">
<path id="Vector_3" fill-rule="evenodd" clip-rule="evenodd" d="M657.999 698.709C656.746 698.709 655.737 699.103 654.918 699.776C654.109 700.436 653.506 701.351 653.02 702.362C652.315 703.825 651.875 705.682 651.68 707.383C651.527 708.745 652.65 709.812 653.957 709.812H654.222L654.752 713.084C654.876 713.851 655.271 714.549 655.865 715.052C656.46 715.556 657.215 715.833 657.996 715.833C658.776 715.833 659.531 715.556 660.126 715.052C660.72 714.549 661.115 713.851 661.239 713.084L661.771 709.812H662.041C663.348 709.812 664.472 708.745 664.319 707.383C664.123 705.682 663.683 703.825 662.979 702.362C662.493 701.351 661.89 700.438 661.081 699.774C660.261 699.103 659.253 698.707 657.999 698.707V698.709ZM662.08 693.21C662.08 695.796 660.615 697.252 658.015 697.252C655.412 697.252 653.948 695.796 653.948 693.21C653.948 690.621 655.412 689.166 658.015 689.166C660.617 689.166 662.08 690.621 662.08 693.21Z" fill="#FF338B"/>
</g>
</g>
<g id="room_22">
<rect x="712" y="637" width="127" height="131" fill="#EBEBF5"/>
<rect x="712" y="637" width="127" height="131" stroke="#1D2056"/>
</g>
<g id="room_23">
<rect x="949" y="637" width="110" height="131" fill="#EBEBF5"/>
<rect x="949" y="637" width="110" height="131" stroke="#1D2056"/>
</g>
<g id="room_24">
<rect x="839" y="637" width="110" height="131" fill="#EBEBF5"/>
<rect x="839" y="637" width="110" height="131" stroke="#1D2056"/>
</g>
<g id="room_25">
<rect x="1059" y="637" width="110" height="131" fill="#EBEBF5"/>
<rect x="1059" y="637" width="110" height="131" stroke="#1D2056"/>
</g>
<g id="room_26">
<rect x="1169" y="637" width="110" height="131" fill="#EBEBF5"/>
<rect x="1169" y="637" width="110" height="131" stroke="#1D2056"/>
</g>
<g id="room_27">
<rect x="1279" y="637" width="110" height="131" fill="#EBEBF5"/>
<rect x="1279" y="637" width="110" height="131" stroke="#1D2056"/>
</g>
<g id="room_28">
<rect x="1389" y="637" width="110" height="131" fill="#EBEBF5"/>
<rect x="1389" y="637" width="110" height="131" stroke="#1D2056"/>
</g>
<g id="room_29">
<rect x="1499" y="637" width="110" height="131" fill="#EBEBF5"/>
<rect x="1499" y="637" width="110" height="131" stroke="#1D2056"/>
</g>
<g id="Frame 2087332192">
<g id="stair">
<rect id="Rectangle 240653086" x="318" y="683" width="6" height="52" transform="rotate(90 318 683)" fill="white" stroke="#1D2056"/>
</g>
<g id="stair_2">
<rect id="Rectangle 240653086_2" x="318" y="689" width="6" height="52" transform="rotate(90 318 689)" fill="white" stroke="#1D2056"/>
</g>
<g id="stair_3">
<rect id="Rectangle 240653086_3" x="318" y="695" width="6" height="52" transform="rotate(90 318 695)" fill="white" stroke="#1D2056"/>
</g>
<g id="stair_4">
<rect id="Rectangle 240653086_4" x="318" y="701" width="6" height="52" transform="rotate(90 318 701)" fill="white" stroke="#1D2056"/>
</g>
<g id="stair_5">
<rect id="Rectangle 240653086_5" x="318" y="707" width="6" height="52" transform="rotate(90 318 707)" fill="white" stroke="#1D2056"/>
</g>
<g id="stair_6">
<rect id="Rectangle 240653086_6" x="318" y="713" width="6" height="52" transform="rotate(90 318 713)" fill="white" stroke="#1D2056"/>
</g>
<g id="stair_7">
<rect id="Rectangle 240653086_7" x="318" y="719" width="6" height="52" transform="rotate(90 318 719)" fill="white" stroke="#1D2056"/>
</g>
<g id="stair_8">
<rect id="Rectangle 240653086_8" x="318" y="725" width="6" height="52" transform="rotate(90 318 725)" fill="white" stroke="#1D2056"/>
</g>
<g id="stair_9">
<rect id="Rectangle 240653086_9" x="318" y="731" width="6" height="52" transform="rotate(90 318 731)" fill="white" stroke="#1D2056"/>
</g>
<g id="stair_10">
<rect id="Rectangle 240653086_10" x="318" y="737" width="6" height="52" transform="rotate(90 318 737)" fill="white" stroke="#1D2056"/>
</g>
<g id="stair_11">
<rect id="Rectangle 240653086_11" x="318" y="743" width="6" height="52" transform="rotate(90 318 743)" fill="white" stroke="#1D2056"/>
</g>
</g>
<g id="Frame 2087332194">
<g id="stair_12">
<rect id="Rectangle 240653086_12" x="1653" y="688" width="6" height="44" transform="rotate(90 1653 688)" fill="white" stroke="#1D2056"/>
</g>
<g id="stair_13">
<rect id="Rectangle 240653086_13" x="1653" y="694" width="6" height="44" transform="rotate(90 1653 694)" fill="white" stroke="#1D2056"/>
</g>
<g id="stair_14">
<rect id="Rectangle 240653086_14" x="1653" y="700" width="6" height="44" transform="rotate(90 1653 700)" fill="white" stroke="#1D2056"/>
</g>
<g id="stair_15">
<rect id="Rectangle 240653086_15" x="1653" y="706" width="6" height="44" transform="rotate(90 1653 706)" fill="white" stroke="#1D2056"/>
</g>
<g id="stair_16">
<rect id="Rectangle 240653086_16" x="1653" y="712" width="6" height="44" transform="rotate(90 1653 712)" fill="white" stroke="#1D2056"/>
</g>
<g id="stair_17">
<rect id="Rectangle 240653086_17" x="1653" y="718" width="6" height="44" transform="rotate(90 1653 718)" fill="white" stroke="#1D2056"/>
</g>
<g id="stair_18">
<rect id="Rectangle 240653086_18" x="1653" y="724" width="6" height="44" transform="rotate(90 1653 724)" fill="white" stroke="#1D2056"/>
</g>
<g id="stair_19">
<rect id="Rectangle 240653086_19" x="1653" y="730" width="6" height="44" transform="rotate(90 1653 730)" fill="white" stroke="#1D2056"/>
</g>
<g id="stair_20">
<rect id="Rectangle 240653086_20" x="1653" y="736" width="6" height="44" transform="rotate(90 1653 736)" fill="white" stroke="#1D2056"/>
</g>
<g id="stair_21">
<rect id="Rectangle 240653086_21" x="1653" y="742" width="6" height="44" transform="rotate(90 1653 742)" fill="white" stroke="#1D2056"/>
</g>
<g id="stair_22">
<rect id="Rectangle 240653086_22" x="1653" y="748" width="6" height="44" transform="rotate(90 1653 748)" fill="white" stroke="#1D2056"/>
</g>
</g>
<g id="Frame 2087332193">
<g id="stair_23">
<rect id="Rectangle 240653086_23" x="369" y="683" width="6" height="51" transform="rotate(90 369 683)" fill="white" stroke="#1D2056"/>
</g>
<g id="stair_24">
<rect id="Rectangle 240653086_24" x="369" y="689" width="6" height="51" transform="rotate(90 369 689)" fill="white" stroke="#1D2056"/>
</g>
<g id="stair_25">
<rect id="Rectangle 240653086_25" x="369" y="695" width="6" height="51" transform="rotate(90 369 695)" fill="white" stroke="#1D2056"/>
</g>
<g id="stair_26">
<rect id="Rectangle 240653086_26" x="369" y="701" width="6" height="51" transform="rotate(90 369 701)" fill="white" stroke="#1D2056"/>
</g>
<g id="stair_27">
<rect id="Rectangle 240653086_27" x="369" y="707" width="6" height="51" transform="rotate(90 369 707)" fill="white" stroke="#1D2056"/>
</g>
<g id="stair_28">
<rect id="Rectangle 240653086_28" x="369" y="713" width="6" height="51" transform="rotate(90 369 713)" fill="white" stroke="#1D2056"/>
</g>
<g id="stair_29">
<rect id="Rectangle 240653086_29" x="369" y="719" width="6" height="51" transform="rotate(90 369 719)" fill="white" stroke="#1D2056"/>
</g>
<g id="stair_30">
<rect id="Rectangle 240653086_30" x="369" y="725" width="6" height="51" transform="rotate(90 369 725)" fill="white" stroke="#1D2056"/>
</g>
<g id="stair_31">
<rect id="Rectangle 240653086_31" x="369" y="731" width="6" height="51" transform="rotate(90 369 731)" fill="white" stroke="#1D2056"/>
</g>
<g id="stair_32">
<rect id="Rectangle 240653086_32" x="369" y="737" width="6" height="51" transform="rotate(90 369 737)" fill="white" stroke="#1D2056"/>
</g>
<g id="stair_33">
<rect id="Rectangle 240653086_33" x="369" y="743" width="6" height="51" transform="rotate(90 369 743)" fill="white" stroke="#1D2056"/>
</g>
</g>
<g id="Frame 2087332195">
<g id="stair_34">
<rect id="Rectangle 240653086_34" x="1696" y="688" width="6" height="43" transform="rotate(90 1696 688)" fill="white" stroke="#1D2056"/>
</g>
<g id="stair_35">
<rect id="Rectangle 240653086_35" x="1696" y="694" width="6" height="43" transform="rotate(90 1696 694)" fill="white" stroke="#1D2056"/>
</g>
<g id="stair_36">
<rect id="Rectangle 240653086_36" x="1696" y="700" width="6" height="43" transform="rotate(90 1696 700)" fill="white" stroke="#1D2056"/>
</g>
<g id="stair_37">
<rect id="Rectangle 240653086_37" x="1696" y="706" width="6" height="43" transform="rotate(90 1696 706)" fill="white" stroke="#1D2056"/>
</g>
<g id="stair_38">
<rect id="Rectangle 240653086_38" x="1696" y="712" width="6" height="43" transform="rotate(90 1696 712)" fill="white" stroke="#1D2056"/>
</g>
<g id="stair_39">
<rect id="Rectangle 240653086_39" x="1696" y="718" width="6" height="43" transform="rotate(90 1696 718)" fill="white" stroke="#1D2056"/>
</g>
<g id="stair_40">
<rect id="Rectangle 240653086_40" x="1696" y="724" width="6" height="43" transform="rotate(90 1696 724)" fill="white" stroke="#1D2056"/>
</g>
<g id="stair_41">
<rect id="Rectangle 240653086_41" x="1696" y="730" width="6" height="43" transform="rotate(90 1696 730)" fill="white" stroke="#1D2056"/>
</g>
<g id="stair_42">
<rect id="Rectangle 240653086_42" x="1696" y="736" width="6" height="43" transform="rotate(90 1696 736)" fill="white" stroke="#1D2056"/>
</g>
<g id="stair_43">
<rect id="Rectangle 240653086_43" x="1696" y="742" width="6" height="43" transform="rotate(90 1696 742)" fill="white" stroke="#1D2056"/>
</g>
<g id="stair_44">
<rect id="Rectangle 240653086_44" x="1696" y="748" width="6" height="43" transform="rotate(90 1696 748)" fill="white" stroke="#1D2056"/>
</g>
</g>
</g>
<defs>
<clipPath id="clip0_1149_41316">
<rect width="32" height="32" fill="white" transform="translate(302 700)"/>
</clipPath>
<clipPath id="clip1_1149_41316">
<rect width="32" height="32" fill="white" transform="translate(1637 705)"/>
</clipPath>
<clipPath id="clip2_1149_41316">
<rect width="32" height="32" fill="white" transform="translate(480 661)"/>
</clipPath>
<clipPath id="clip3_1149_41316">
<rect width="32" height="32" fill="white" transform="translate(480 713)"/>
</clipPath>
</defs>
</svg>
